{
.appVersion = "930";
copyright = "Copyright 2016 Jeremy Tribby. SIL OFL License v1.1.";
date = "2016-07-12 00:27:02 +0000";
designer = "Jeremy Tribby";
designerURL = "http://tribby.com/";
familyName = Barlow;
featurePrefixes = (
{
automatic = 1;
code = "languagesystem DFLT dflt;\012";
name = Languagesystems;
}
);
features = (
{
automatic = 1;
code = "sub hyphen hyphen by hyphen_hyphen.liga;\012";
name = liga;
}
);
fontMaster = (
{
alignmentZones = (
"{800, 16}",
"{700, 10}",
"{500, 6}",
"{0, -10}",
"{-200, -12}"
);
ascender = 800;
capHeight = 700;
customParameters = (
{
name = paramArea;
value = "488";
},
{
name = paramDepth;
value = "16";
},
{
name = paramOver;
value = "0";
}
);
descender = -200;
horizontalStems = (
22,
22
);
id = "262880E7-CFE1-4BDA-902E-E24798F3240A";
userData = {
GSCornerRadius = 8;
GSOffsetHorizontal = 100;
GSOffsetMakeStroke = 1;
GSOffsetVertical = 90;
noodleExtremesAndInflections = 1;
noodleRemoveOverlap = 1;
noodleThickness = "22.0";
};
verticalStems = (
21,
21
);
visible = 1;
weight = Light;
weightValue = 23;
xHeight = 500;
},
{
alignmentZones = (
"{800, 16}",
"{700, 9}",
"{500, 5}",
"{0, -9}",
"{-200, -10}"
);
ascender = 800;
capHeight = 700;
customParameters = (
{
name = paramArea;
value = "488";
},
{
name = paramDepth;
value = "16";
},
{
name = paramOver;
value = "0";
}
);
descender = -200;
horizontalStems = (
188,
188
);
id = "4E2227F3-52E4-4048-A8EE-327B486EF0A4";
userData = {
GSCornerRadius = 8;
GSOffsetHorizontal = 68;
GSOffsetMakeStroke = 1;
GSOffsetVertical = 68;
noodleExtremesAndInflections = 1;
noodleRemoveOverlap = 1;
noodleThickness = "22.0";
};
verticalStems = (
166,
150
);
visible = 1;
weight = Bold;
weightValue = 188;
xHeight = 500;
}
);
glyphs = (
{
color = 1;
glyphname = A;
lastChange = "2016-10-22 11:46:29 +0000";
layers = (
{
layerId = "262880E7-CFE1-4BDA-902E-E24798F3240A";
paths = (
{
closed = 1;
nodes = (
"23 0 LINE",
"213 658 LINE",
"403 0 LINE",
"425 0 LINE",
"224 700 LINE",
"201 700 LINE",
"0 0 LINE"
);
},
{
closed = 1;
nodes = (
"370 145 LINE",
"370 166 LINE",
"60 166 LINE",
"60 145 LINE"
);
}
);
width = 425;
},
{
layerId = "4E2227F3-52E4-4048-A8EE-327B486EF0A4";
paths = (
{
closed = 1;
nodes = (
"188 0 LINE",
"266 449 LINE",
"338 0 LINE",
"526 0 LINE",
"362 700 LINE",
"164 700 LINE",
"0 0 LINE"
);
},
{
closed = 1;
nodes = (
"403 100 LINE",
"403 252 LINE",
"124 252 LINE",
"124 100 LINE"
);
}
);
width = 526;
}
);
unicode = 0041;
},
{
color = 1;
glyphname = B;
lastChange = "2016-10-22 11:28:31 +0000";
layers = (
{
layerId = "262880E7-CFE1-4BDA-902E-E24798F3240A";
paths = (
{
closed = 1;
nodes = (
"279 0 LINE SMOOTH",
"389 0 OFFCURVE",
"462 74 OFFCURVE",
"462 186 CURVE SMOOTH",
"462 298 OFFCURVE",
"389 372 OFFCURVE",
"279 372 CURVE SMOOTH",
"99 372 LINE",
"99 0 LINE"
);
},
{
closed = 1;
nodes = (
"121 351 LINE",
"279 351 LINE SMOOTH",
"376 351 OFFCURVE",
"440 285 OFFCURVE",
"440 186 CURVE SMOOTH",
"440 88 OFFCURVE",
"376 22 OFFCURVE",
"279 22 CURVE SMOOTH",
"121 22 LINE"
);
},
{
closed = 1;
nodes = (
"121 679 LINE",
"279 679 LINE SMOOTH",
"376 679 OFFCURVE",
"440 617 OFFCURVE",
"440 523 CURVE SMOOTH",
"440 432 OFFCURVE",
"376 372 OFFCURVE",
"279 372 CURVE SMOOTH",
"121 372 LINE"
);
},
{
closed = 1;
nodes = (
"279 351 LINE SMOOTH",
"389 351 OFFCURVE",
"462 420 OFFCURVE",
"462 523 CURVE SMOOTH",
"462 629 OFFCURVE",
"389 700 OFFCURVE",
"279 700 CURVE SMOOTH",
"99 700 LINE",
"99 351 LINE"
);
}
);
width = 495;
},
{
layerId = "4E2227F3-52E4-4048-A8EE-327B486EF0A4";
paths = (
{
closed = 1;
nodes = (
"267 0 LINE SMOOTH",
"402 0 OFFCURVE",
"492 83 OFFCURVE",
"492 204 CURVE SMOOTH",
"492 332 OFFCURVE",
"350 411 OFFCURVE",
"200 411 CURVE",
"28 411 LINE",
"28 0 LINE"
);
},
{
closed = 1;
nodes = (
"216 296 LINE",
"253 296 LINE SMOOTH",
"284 296 OFFCURVE",
"304 264 OFFCURVE",
"304 225 CURVE SMOOTH",
"304 186 OFFCURVE",
"283 166 OFFCURVE",
"252 166 CURVE SMOOTH",
"216 166 LINE"
);
},
{
closed = 1;
nodes = (
"216 534 LINE",
"246 534 LINE",
"273 534 OFFCURVE",
"291 516 OFFCURVE",
"291 479 CURVE SMOOTH",
"291 442 OFFCURVE",
"273 411 OFFCURVE",
"246 411 CURVE",
"216 411 LINE"
);
},
{
closed = 1;
nodes = (
"200 312 LINE SMOOTH",
"342 312 OFFCURVE",
"479 387 OFFCURVE",
"479 503 CURVE SMOOTH",
"479 620 OFFCURVE",
"383 700 OFFCURVE",
"238 700 CURVE",
"28 700 LINE",
"28 312 LINE"
);
}
);
width = 508;
}
);
unicode = 0042;
},
{
color = 1;
glyphname = C;
lastChange = "2016-10-22 11:28:31 +0000";
layers = (
{
layerId = "262880E7-CFE1-4BDA-902E-E24798F3240A";
paths = (
{
closed = 1;
nodes = (
"354 -9 OFFCURVE",
"423 56 OFFCURVE",
"423 154 CURVE SMOOTH",
"423 154 LINE",
"401 154 LINE",
"401 152 LINE SMOOTH",
"401 68 OFFCURVE",
"341 12 OFFCURVE",
"250 12 CURVE SMOOTH",
"159 12 OFFCURVE",
"99 68 OFFCURVE",
"99 152 CURVE SMOOTH",
"99 548 LINE SMOOTH",
"99 632 OFFCURVE",
"159 688 OFFCURVE",
"250 688 CURVE SMOOTH",
"341 688 OFFCURVE",
"401 632 OFFCURVE",
"401 548 CURVE SMOOTH",
"401 545 LINE",
"423 545 LINE",
"423 546 LINE SMOOTH",
"423 644 OFFCURVE",
"354 709 OFFCURVE",
"250 709 CURVE SMOOTH",
"146 709 OFFCURVE",
"77 644 OFFCURVE",
"77 546 CURVE SMOOTH",
"77 154 LINE SMOOTH",
"77 56 OFFCURVE",
"146 -9 OFFCURVE",
"250 -9 CURVE SMOOTH"
);
}
);
width = 456;
},
{
layerId = "4E2227F3-52E4-4048-A8EE-327B486EF0A4";
paths = (
{
closed = 1;
nodes = (
"392 -8 OFFCURVE",
"484 72 OFFCURVE",
"484 192 CURVE SMOOTH",
"484 244 LINE",
"296 244 LINE",
"296 194 LINE SMOOTH",
"296 169 OFFCURVE",
"279 152 OFFCURVE",
"254 152 CURVE SMOOTH",
"229 152 OFFCURVE",
"212 169 OFFCURVE",
"212 194 CURVE SMOOTH",
"212 506 LINE SMOOTH",
"212 531 OFFCURVE",
"229 548 OFFCURVE",
"254 548 CURVE SMOOTH",
"279 548 OFFCURVE",
"296 531 OFFCURVE",
"296 506 CURVE SMOOTH",
"296 456 LINE",
"484 456 LINE",
"484 508 LINE SMOOTH",
"484 628 OFFCURVE",
"392 708 OFFCURVE",
"254 708 CURVE SMOOTH",
"116 708 OFFCURVE",
"24 628 OFFCURVE",
"24 508 CURVE SMOOTH",
"24 192 LINE SMOOTH",
"24 72 OFFCURVE",
"116 -8 OFFCURVE",
"254 -8 CURVE SMOOTH"
);
}
);
width = 504;
}
);
unicode = 0043;
},
{
color = 1;
glyphname = D;
lastChange = "2016-10-22 12:02:57 +0000";
layers = (
{
layerId = "262880E7-CFE1-4BDA-902E-E24798F3240A";
paths = (
{
closed = 1;
nodes = (
"264 0 LINE SMOOTH",
"371 0 OFFCURVE",
"437 68 OFFCURVE",
"437 180 CURVE SMOOTH",
"437 520 LINE SMOOTH",
"437 632 OFFCURVE",
"371 700 OFFCURVE",
"264 700 CURVE SMOOTH",
"99 700 LINE",
"99 0 LINE"
);
},
{
closed = 1;
nodes = (
"115 679 LINE",
"266 679 LINE SMOOTH",
"358 679 OFFCURVE",
"415 619 OFFCURVE",
"415 520 CURVE SMOOTH",
"415 180 LINE SMOOTH",
"415 82 OFFCURVE",
"358 22 OFFCURVE",
"266 22 CURVE SMOOTH",
"115 22 LINE"
);
}
);
width = 514;
},
{
layerId = "4E2227F3-52E4-4048-A8EE-327B486EF0A4";
paths = (
{
closed = 1;
nodes = (
"263 0 LINE SMOOTH",
"398 0 OFFCURVE",
"488 80 OFFCURVE",
"488 200 CURVE SMOOTH",
"488 500 LINE SMOOTH",
"488 620 OFFCURVE",
"398 700 OFFCURVE",
"263 700 CURVE SMOOTH",
"28 700 LINE",
"28 0 LINE"
);
},
{
closed = 1;
nodes = (
"216 534 LINE",
"248 534 LINE SMOOTH",
"279 534 OFFCURVE",
"300 514 OFFCURVE",
"300 483 CURVE",
"300 217 LINE",
"298 187 OFFCURVE",
"277 167 OFFCURVE",
"248 166 CURVE SMOOTH",
"216 165 LINE"
);
}
);
width = 512;
}
);
unicode = 0044;
},
{
color = 1;
glyphname = E;
lastChange = "2016-10-22 11:28:31 +0000";
layers = (
{
layerId = "262880E7-CFE1-4BDA-902E-E24798F3240A";
paths = (
{
closed = 1;
nodes = (
"441 0 LINE",
"441 21 LINE",
"121 21 LINE",
"121 679 LINE",
"441 679 LINE",
"441 700 LINE",
"99 700 LINE",
"99 0 LINE"
);
},
{
closed = 1;
nodes = (
"344 340 LINE",
"344 361 LINE",
"110 361 LINE",
"110 340 LINE"
);
}
);
width = 463;
},
{
layerId = "4E2227F3-52E4-4048-A8EE-327B486EF0A4";
paths = (
{
closed = 1;
nodes = (
"463 0 LINE",
"463 158 LINE",
"216 158 LINE",
"216 542 LINE",
"463 542 LINE",
"463 700 LINE",
"28 700 LINE",
"28 0 LINE"
);
},
{
closed = 1;
nodes = (
"364 283 LINE",
"364 443 LINE",
"104 443 LINE",
"104 283 LINE"
);
}
);
width = 475;
}
);
unicode = 0045;
},
{
color = 1;
glyphname = F;
lastChange = "2016-10-22 11:28:31 +0000";
layers = (
{
layerId = "262880E7-CFE1-4BDA-902E-E24798F3240A";
paths = (
{
closed = 1;
nodes = (
"121 0 LINE",
"121 679 LINE",
"440 679 LINE",
"440 700 LINE",
"99 700 LINE",
"99 0 LINE"
);
},
{
closed = 1;
nodes = (
"343 340 LINE",
"343 361 LINE",
"110 361 LINE",
"110 340 LINE"
);
}
);
width = 451;
},
{
layerId = "4E2227F3-52E4-4048-A8EE-327B486EF0A4";
paths = (
{
closed = 1;
nodes = (
"216 0 LINE",
"216 534 LINE",
"463 534 LINE",
"463 700 LINE",
"28 700 LINE",
"28 0 LINE"
);
},
{
closed = 1;
nodes = (
"364 269 LINE",
"364 435 LINE",
"104 435 LINE",
"104 269 LINE"
);
}
);
width = 475;
}
);
unicode = 0046;
},
{
color = 1;
glyphname = G;
lastChange = "2016-10-22 11:28:31 +0000";
layers = (
{
layerId = "262880E7-CFE1-4BDA-902E-E24798F3240A";
paths = (
{
closed = 1;
nodes = (
"354 -9 OFFCURVE",
"423 56 OFFCURVE",
"423 154 CURVE SMOOTH",
"423 361 LINE",
"259 361 LINE",
"259 340 LINE",
"401 340 LINE",
"401 152 LINE SMOOTH",
"401 68 OFFCURVE",
"341 12 OFFCURVE",
"250 12 CURVE SMOOTH",
"159 12 OFFCURVE",
"99 68 OFFCURVE",
"99 152 CURVE SMOOTH",
"99 548 LINE SMOOTH",
"99 632 OFFCURVE",
"159 688 OFFCURVE",
"250 688 CURVE SMOOTH",
"341 688 OFFCURVE",
"401 632 OFFCURVE",
"401 548 CURVE SMOOTH",
"401 500 LINE",
"423 500 LINE",
"423 546 LINE SMOOTH",
"423 644 OFFCURVE",
"354 709 OFFCURVE",
"250 709 CURVE SMOOTH",
"146 709 OFFCURVE",
"77 644 OFFCURVE",
"77 546 CURVE SMOOTH",
"77 154 LINE SMOOTH",
"77 56 OFFCURVE",
"146 -9 OFFCURVE",
"250 -9 CURVE SMOOTH"
);
}
);
width = 500;
},
{
layerId = "4E2227F3-52E4-4048-A8EE-327B486EF0A4";
paths = (
{
closed = 1;
nodes = (
"392 -8 OFFCURVE",
"484 72 OFFCURVE",
"484 192 CURVE SMOOTH",
"484 380 LINE",
"256 380 LINE",
"256 271 LINE",
"296 271 LINE",
"296 194 LINE SMOOTH",
"296 169 OFFCURVE",
"279 152 OFFCURVE",
"254 152 CURVE SMOOTH",
"229 152 OFFCURVE",
"212 169 OFFCURVE",
"212 194 CURVE SMOOTH",
"212 506 LINE SMOOTH",
"212 531 OFFCURVE",
"229 548 OFFCURVE",
"254 548 CURVE SMOOTH",
"279 548 OFFCURVE",
"296 531 OFFCURVE",
"296 506 CURVE SMOOTH",
"296 430 LINE",
"484 430 LINE",
"484 508 LINE SMOOTH",
"484 628 OFFCURVE",
"392 708 OFFCURVE",
"254 708 CURVE SMOOTH",
"116 708 OFFCURVE",
"24 628 OFFCURVE",
"24 508 CURVE SMOOTH",
"24 192 LINE SMOOTH",
"24 72 OFFCURVE",
"116 -8 OFFCURVE",
"254 -8 CURVE SMOOTH"
);
}
);
width = 508;
}
);
unicode = 0047;
},
{
color = 1;
glyphname = H;
lastChange = "2016-10-22 11:28:31 +0000";
layers = (
{
layerId = "262880E7-CFE1-4BDA-902E-E24798F3240A";
paths = (
{
closed = 1;
nodes = (
"443 0 LINE",
"443 700 LINE",
"421 700 LINE",
"421 0 LINE"
);
},
{
closed = 1;
nodes = (
"121 0 LINE",
"121 700 LINE",
"99 700 LINE",
"99 0 LINE"
);
},
{
closed = 1;
nodes = (
"426 340 LINE",
"426 361 LINE",
"116 361 LINE",
"116 340 LINE"
);
}
);
width = 542;
},
{
layerId = "4E2227F3-52E4-4048-A8EE-327B486EF0A4";
paths = (
{
closed = 1;
nodes = (
"474 0 LINE",
"474 700 LINE",
"286 700 LINE",
"286 0 LINE"
);
},
{
closed = 1;
nodes = (
"220 0 LINE",
"220 700 LINE",
"32 700 LINE",
"32 0 LINE"
);
},
{
closed = 1;
nodes = (
"355 275 LINE",
"355 435 LINE",
"150 435 LINE",
"150 275 LINE"
);
}
);
width = 506;
}
);
unicode = 0048;
},
{
color = 1;
glyphname = I;
lastChange = "2016-10-22 06:27:19 +0000";
layers = (
{
layerId = "262880E7-CFE1-4BDA-902E-E24798F3240A";
paths = (
{
closed = 1;
nodes = (
"121 0 LINE",
"121 700 LINE",
"99 700 LINE",
"99 0 LINE"
);
}
);
width = 220;
},
{
layerId = "4E2227F3-52E4-4048-A8EE-327B486EF0A4";
paths = (
{
closed = 1;
nodes = (
"216 0 LINE",
"216 700 LINE",
"28 700 LINE",
"28 0 LINE"
);
}
);
width = 244;
}
);
unicode = 0049;
},
{
color = 1;
glyphname = J;
lastChange = "2016-10-22 11:40:12 +0000";
layers = (
{
layerId = "262880E7-CFE1-4BDA-902E-E24798F3240A";
paths = (
{
closed = 1;
nodes = (
"637 -9 OFFCURVE",
"705 56 OFFCURVE",
"705 154 CURVE SMOOTH",
"705 700 LINE",
"683 700 LINE",
"683 152 LINE SMOOTH",
"683 68 OFFCURVE",
"623 12 OFFCURVE",
"534 12 CURVE SMOOTH",
"445 12 OFFCURVE",
"385 68 OFFCURVE",
"385 152 CURVE SMOOTH",
"385 234 LINE",
"363 234 LINE",
"363 154 LINE SMOOTH",
"363 56 OFFCURVE",
"431 -9 OFFCURVE",
"534 -9 CURVE SMOOTH"
);
}
);
width = 793;
},
{
layerId = "4E2227F3-52E4-4048-A8EE-327B486EF0A4";
paths = (
{
closed = 1;
nodes = (
"396 -8 OFFCURVE",
"488 72 OFFCURVE",
"488 192 CURVE SMOOTH",
"488 700 LINE",
"300 700 LINE",
"300 194 LINE SMOOTH",
"300 169 OFFCURVE",
"283 152 OFFCURVE",
"258 152 CURVE SMOOTH",
"233 152 OFFCURVE",
"216 169 OFFCURVE",
"216 194 CURVE SMOOTH",
"216 255 LINE",
"28 255 LINE",
"28 192 LINE SMOOTH",
"28 72 OFFCURVE",
"120 -8 OFFCURVE",
"258 -8 CURVE SMOOTH"
);
}
);
width = 516;
}
);
unicode = 004A;
},
{
color = 1;
glyphname = K;
lastChange = "2016-10-22 11:48:15 +0000";
layers = (
{
layerId = "262880E7-CFE1-4BDA-902E-E24798F3240A";
paths = (
{
closed = 1;
nodes = (
"121 0 LINE",
"121 328 LINE",
"402 0 LINE",
"431 0 LINE",
"129 350 LINE",
"431 700 LINE",
"402 700 LINE",
"121 372 LINE",
"121 700 LINE",
"99 700 LINE",
"99 0 LINE"
);
}
);
width = 420;
},
{
layerId = "4E2227F3-52E4-4048-A8EE-327B486EF0A4";
paths = (
{
closed = 1;
nodes = (
"216 0 LINE",
"216 245 LINE",
"322 0 LINE",
"541 0 LINE",
"352 350 LINE",
"541 700 LINE",
"322 700 LINE",
"216 455 LINE",
"216 700 LINE",
"28 700 LINE",
"28 0 LINE"
);
}
);
width = 531;
}
);
unicode = 004B;
},
{
color = 1;
glyphname = L;
lastChange = "2016-10-22 11:28:31 +0000";
layers = (
{
layerId = "262880E7-CFE1-4BDA-902E-E24798F3240A";
paths = (
{
closed = 1;
nodes = (
"432 0 LINE",
"432 21 LINE",
"121 21 LINE",
"121 700 LINE",
"99 700 LINE",
"99 0 LINE"
);
}
);
width = 443;
},
{
layerId = "4E2227F3-52E4-4048-A8EE-327B486EF0A4";
paths = (
{
closed = 1;
nodes = (
"463 0 LINE",
"463 160 LINE",
"216 160 LINE",
"216 700 LINE",
"28 700 LINE",
"28 0 LINE"
);
}
);
width = 471;
}
);
unicode = 004C;
},
{
color = 1;
glyphname = M;
lastChange = "2016-10-22 11:28:31 +0000";
layers = (
{
layerId = "262880E7-CFE1-4BDA-902E-E24798F3240A";
paths = (
{
closed = 1;
nodes = (
"121 0 LINE",
"121 651 LINE",
"289 327 LINE",
"457 651 LINE",
"457 0 LINE",
"479 0 LINE",
"479 700 LINE",
"457 700 LINE",
"289 372 LINE",
"121 700 LINE",
"99 700 LINE",
"99 0 LINE"
);
}
);
width = 578;
},
{
layerId = "4E2227F3-52E4-4048-A8EE-327B486EF0A4";
paths = (
{
closed = 1;
nodes = (
"220 0 LINE",
"220 414 LINE",
"287 276 LINE",
"352 411 LINE",
"352 0 LINE",
"540 0 LINE",
"540 700 LINE",
"357 700 LINE",
"287 557 LINE",
"215 700 LINE",
"32 700 LINE",
"32 0 LINE"
);
}
);
width = 572;
},
{
associatedMasterId = "4E2227F3-52E4-4048-A8EE-327B486EF0A4";
layerId = "C6629B64-9ED2-4F57-9FC9-8668B05C088F";
name = "Regular{62,100}";
paths = (
{
closed = 1;
nodes = (
"148 0 LINE",
"148 558 LINE",
"288 285 LINE",
"428 557 LINE",
"428 0 LINE",
"490 0 LINE",
"490 700 LINE",
"428 700 LINE",
"288 416 LINE",
"148 700 LINE",
"86 700 LINE",
"86 0 LINE"
);
}
);
width = 566;
}
);
unicode = 004D;
},
{
color = 1;
glyphname = N;
lastChange = "2016-10-22 12:00:38 +0000";
layers = (
{
layerId = "262880E7-CFE1-4BDA-902E-E24798F3240A";
paths = (
{
closed = 1;
nodes = (
"121 0 LINE",
"121 646 LINE",
"421 0 LINE",
"443 0 LINE",
"443 700 LINE",
"421 700 LINE",
"421 54 LINE",
"121 700 LINE",
"99 700 LINE",
"99 0 LINE"
);
}
);
width = 542;
},
{
layerId = "4E2227F3-52E4-4048-A8EE-327B486EF0A4";
paths = (
{
closed = 1;
nodes = (
"216 0 LINE",
"214 346 LINE",
"308 0 LINE",
"516 0 LINE",
"516 700 LINE",
"328 700 LINE",
"330 356 LINE",
"236 700 LINE",
"28 700 LINE",
"28 0 LINE"
);
}
);
width = 544;
},
{
associatedMasterId = "4E2227F3-52E4-4048-A8EE-327B486EF0A4";
layerId = "3255EADC-07B8-4519-845B-D97716A0B38E";
name = "DemiBold{110,100}";
paths = (
{
closed = 1;
nodes = (
"165 0 LINE",
"164 458 LINE",
"366 0 LINE",
"476 0 LINE",
"476 700 LINE",
"366 700 LINE",
"367 243 LINE",
"166 700 LINE",
"56 700 LINE",
"56 0 LINE"
);
}
);
width = 531;
}
);
unicode = 004E;
},
{
color = 1;
glyphname = O;
lastChange = "2016-10-22 11:28:31 +0000";
layers = (
{
layerId = "262880E7-CFE1-4BDA-902E-E24798F3240A";
paths = (
{
closed = 1;
nodes = (
"360 -9 OFFCURVE",
"431 56 OFFCURVE",
"431 154 CURVE SMOOTH",
"431 546 LINE SMOOTH",
"431 644 OFFCURVE",
"360 709 OFFCURVE",
"254 709 CURVE SMOOTH",
"148 709 OFFCURVE",
"77 644 OFFCURVE",
"77 546 CURVE SMOOTH",
"77 154 LINE SMOOTH",
"77 56 OFFCURVE",
"148 -9 OFFCURVE",
"254 -9 CURVE SMOOTH"
);
},
{
closed = 1;
nodes = (
"161 12 OFFCURVE",
"99 68 OFFCURVE",
"99 152 CURVE SMOOTH",
"99 548 LINE SMOOTH",
"99 632 OFFCURVE",
"161 688 OFFCURVE",
"254 688 CURVE SMOOTH",
"347 688 OFFCURVE",
"409 632 OFFCURVE",
"409 548 CURVE SMOOTH",
"409 152 LINE SMOOTH",
"409 68 OFFCURVE",
"347 12 OFFCURVE",
"254 12 CURVE SMOOTH"
);
}
);
width = 508;
},
{
layerId = "4E2227F3-52E4-4048-A8EE-327B486EF0A4";
paths = (
{
closed = 1;
nodes = (
"392 -8 OFFCURVE",
"484 72 OFFCURVE",
"484 192 CURVE SMOOTH",
"484 508 LINE SMOOTH",
"484 628 OFFCURVE",
"392 708 OFFCURVE",
"254 708 CURVE SMOOTH",
"116 708 OFFCURVE",
"24 628 OFFCURVE",
"24 508 CURVE SMOOTH",
"24 192 LINE SMOOTH",
"24 72 OFFCURVE",
"116 -8 OFFCURVE",
"254 -8 CURVE SMOOTH"
);
},
{
closed = 1;
nodes = (
"229 152 OFFCURVE",
"212 169 OFFCURVE",
"212 194 CURVE SMOOTH",
"212 506 LINE SMOOTH",
"212 531 OFFCURVE",
"229 548 OFFCURVE",
"254 548 CURVE SMOOTH",
"279 548 OFFCURVE",
"296 531 OFFCURVE",
"296 506 CURVE SMOOTH",
"296 194 LINE SMOOTH",
"296 169 OFFCURVE",
"279 152 OFFCURVE",
"254 152 CURVE SMOOTH"
);
}
);
width = 508;
}
);
unicode = 004F;
},
{
color = 1;
glyphname = P;
lastChange = "2016-10-22 11:28:31 +0000";
layers = (
{
layerId = "262880E7-CFE1-4BDA-902E-E24798F3240A";
paths = (
{
closed = 1;
nodes = (
"122 0 LINE",
"122 680 LINE",
"299 680 LINE SMOOTH",
"383 680 OFFCURVE",
"439 616 OFFCURVE",
"439 520 CURVE SMOOTH",
"439 424 OFFCURVE",
"383 360 OFFCURVE",
"299 360 CURVE SMOOTH",
"117 360 LINE",
"117 340 LINE",
"297 340 LINE SMOOTH",
"395 340 OFFCURVE",
"460 411 OFFCURVE",
"460 520 CURVE SMOOTH",
"460 629 OFFCURVE",
"395 702 OFFCURVE",
"297 702 CURVE SMOOTH",
"99 702 LINE",
"99 0 LINE"
);
}
);
width = 482;
},
{
layerId = "4E2227F3-52E4-4048-A8EE-327B486EF0A4";
paths = (
{
closed = 1;
nodes = (
"216 0 LINE",
"216 540 LINE",
"251 540 LINE SMOOTH",
"283 540 OFFCURVE",
"305 514 OFFCURVE",
"305 476 CURVE SMOOTH",
"305 438 OFFCURVE",
"283 412 OFFCURVE",
"251 412 CURVE SMOOTH",
"200 412 LINE",
"200 256 LINE",
"283 256 LINE SMOOTH",
"409 256 OFFCURVE",
"493 346 OFFCURVE",
"493 476 CURVE SMOOTH",
"493 610 OFFCURVE",
"405 700 OFFCURVE",
"273 700 CURVE SMOOTH",
"28 700 LINE",
"28 0 LINE"
);
}
);
width = 509;
}
);
unicode = 0050;
},
{
color = 1;
glyphname = Q;
lastChange = "2016-10-22 11:40:01 +0000";
layers = (
{
layerId = "262880E7-CFE1-4BDA-902E-E24798F3240A";
paths = (
{
closed = 1;
nodes = (
"355 -9 OFFCURVE",
"425 56 OFFCURVE",
"425 154 CURVE SMOOTH",
"425 546 LINE SMOOTH",
"425 644 OFFCURVE",
"355 709 OFFCURVE",
"251 709 CURVE SMOOTH",
"147 709 OFFCURVE",
"77 644 OFFCURVE",
"77 546 CURVE SMOOTH",
"77 154 LINE SMOOTH",
"77 56 OFFCURVE",
"147 -9 OFFCURVE",
"251 -9 CURVE SMOOTH"
);
},
{
closed = 1;
nodes = (
"386 -51 LINE",
"189 16 LINE",
"189 0 LINE",
"386 -72 LINE"
);
},
{
closed = 1;
nodes = (
"160 12 OFFCURVE",
"99 68 OFFCURVE",
"99 152 CURVE SMOOTH",
"99 548 LINE SMOOTH",
"99 632 OFFCURVE",
"160 688 OFFCURVE",
"251 688 CURVE SMOOTH",
"342 688 OFFCURVE",
"403 632 OFFCURVE",
"403 548 CURVE SMOOTH",
"403 152 LINE SMOOTH",
"403 68 OFFCURVE",
"342 12 OFFCURVE",
"251 12 CURVE SMOOTH"
);
}
);
width = 508;
},
{
layerId = "4E2227F3-52E4-4048-A8EE-327B486EF0A4";
paths = (
{
closed = 1;
nodes = (
"392 -8 OFFCURVE",
"484 72 OFFCURVE",
"484 192 CURVE SMOOTH",
"484 508 LINE SMOOTH",
"484 628 OFFCURVE",
"392 708 OFFCURVE",
"254 708 CURVE SMOOTH",
"116 708 OFFCURVE",
"24 628 OFFCURVE",
"24 508 CURVE SMOOTH",
"24 192 LINE SMOOTH",
"24 72 OFFCURVE",
"116 -8 OFFCURVE",
"254 -8 CURVE SMOOTH"
);
},
{
closed = 1;
nodes = (
"497 81 LINE",
"189 106 LINE",
"192 1 LINE",
"473 -53 LINE"
);
},
{
closed = 1;
nodes = (
"229 152 OFFCURVE",
"212 169 OFFCURVE",
"212 194 CURVE SMOOTH",
"212 506 LINE SMOOTH",
"212 531 OFFCURVE",
"229 548 OFFCURVE",
"254 548 CURVE SMOOTH",
"279 548 OFFCURVE",
"296 531 OFFCURVE",
"296 506 CURVE SMOOTH",
"296 194 LINE SMOOTH",
"296 169 OFFCURVE",
"279 152 OFFCURVE",
"254 152 CURVE SMOOTH"
);
}
);
width = 508;
}
);
unicode = 0051;
},
{
color = 1;
glyphname = R;
lastChange = "2016-10-22 12:01:18 +0000";
layers = (
{
layerId = "262880E7-CFE1-4BDA-902E-E24798F3240A";
paths = (
{
closed = 1;
nodes = (
"122 0 LINE",
"122 680 LINE",
"299 680 LINE SMOOTH",
"383 680 OFFCURVE",
"439 616 OFFCURVE",
"439 520 CURVE SMOOTH",
"439 424 OFFCURVE",
"383 360 OFFCURVE",
"299 360 CURVE SMOOTH",
"117 360 LINE",
"117 340 LINE",
"297 340 LINE SMOOTH",
"395 340 OFFCURVE",
"460 411 OFFCURVE",
"460 520 CURVE SMOOTH",
"460 629 OFFCURVE",
"395 702 OFFCURVE",
"297 702 CURVE SMOOTH",
"99 702 LINE",
"99 0 LINE"
);
},
{
closed = 1;
nodes = (
"438 0 LINE",
"317 349 LINE",
"299 341 LINE",
"416 0 LINE"
);
}
);
width = 498;
},
{
layerId = "4E2227F3-52E4-4048-A8EE-327B486EF0A4";
paths = (
{
closed = 1;
nodes = (
"216 0 LINE",
"216 540 LINE",
"251 540 LINE SMOOTH",
"283 540 OFFCURVE",
"305 514 OFFCURVE",
"305 476 CURVE SMOOTH",
"305 438 OFFCURVE",
"283 412 OFFCURVE",
"251 412 CURVE SMOOTH",
"200 412 LINE",
"200 256 LINE",
"283 256 LINE SMOOTH",
"409 256 OFFCURVE",
"493 346 OFFCURVE",
"493 476 CURVE SMOOTH",
"493 610 OFFCURVE",
"405 700 OFFCURVE",
"273 700 CURVE SMOOTH",
"28 700 LINE",
"28 0 LINE"
);
},
{
closed = 1;
nodes = (
"494 0 LINE",
"400 338 LINE",
"222 338 LINE",
"300 0 LINE"
);
}
);
width = 522;
}
);
unicode = 0052;
},
{
color = 1;
glyphname = S;
lastChange = "2016-10-22 11:28:31 +0000";
layers = (
{
layerId = "262880E7-CFE1-4BDA-902E-E24798F3240A";
paths = (
{
closed = 1;
nodes = (
"322 -9 OFFCURVE",
"386 49 OFFCURVE",
"386 149 CURVE SMOOTH",
"386 254 OFFCURVE",
"303 307 OFFCURVE",
"221 359 CURVE SMOOTH",
"143 409 OFFCURVE",
"66 457 OFFCURVE",
"66 550 CURVE SMOOTH",
"66 637 OFFCURVE",
"120 688 OFFCURVE",
"212 688 CURVE SMOOTH",
"304 688 OFFCURVE",
"358 636 OFFCURVE",
"358 548 CURVE SMOOTH",
"358 500 LINE",
"380 500 LINE",
"380 549 LINE SMOOTH",
"380 650 OFFCURVE",
"318 709 OFFCURVE",
"212 709 CURVE SMOOTH",
"106 709 OFFCURVE",
"44 651 OFFCURVE",
"44 552 CURVE SMOOTH",
"44 448 OFFCURVE",
"127 395 OFFCURVE",
"208 343 CURVE SMOOTH",
"287 293 OFFCURVE",
"364 243 OFFCURVE",
"364 149 CURVE SMOOTH",
"364 63 OFFCURVE",
"308 12 OFFCURVE",
"213 12 CURVE SMOOTH",
"120 12 OFFCURVE",
"66 63 OFFCURVE",
"66 151 CURVE SMOOTH",
"66 210 LINE",
"46 210 LINE",
"46 150 LINE SMOOTH",
"46 50 OFFCURVE",
"108 -9 OFFCURVE",
"214 -9 CURVE SMOOTH"
);
}
);
width = 430;
},
{
layerId = "4E2227F3-52E4-4048-A8EE-327B486EF0A4";
paths = (
{
closed = 1;
nodes = (
"375 -4 OFFCURVE",
"464 74 OFFCURVE",
"464 189 CURVE SMOOTH",
"464 291 OFFCURVE",
"395 341 OFFCURVE",
"292 412 CURVE SMOOTH",
"222 460 OFFCURVE",
"205 473 OFFCURVE",
"205 506 CURVE SMOOTH",
"205 529 OFFCURVE",
"218 544 OFFCURVE",
"238 544 CURVE SMOOTH",
"260 544 OFFCURVE",
"274 530 OFFCURVE",
"274 510 CURVE SMOOTH",
"274 490 LINE",
"459 490 LINE",
"459 505 LINE SMOOTH",
"459 624 OFFCURVE",
"372 704 OFFCURVE",
"240 704 CURVE SMOOTH",
"107 704 OFFCURVE",
"20 624 OFFCURVE",
"20 507 CURVE SMOOTH",
"20 384 OFFCURVE",
"116 320 OFFCURVE",
"190 272 CURVE SMOOTH",
"263 224 OFFCURVE",
"279 213 OFFCURVE",
"279 188 CURVE SMOOTH",
"279 169 OFFCURVE",
"265 156 OFFCURVE",
"245 156 CURVE SMOOTH",
"224 156 OFFCURVE",
"210 170 OFFCURVE",
"210 192 CURVE SMOOTH",
"210 211 LINE",
"25 211 LINE",
"25 184 LINE SMOOTH",
"25 74 OFFCURVE",
"110 -4 OFFCURVE",
"242 -4 CURVE SMOOTH"
);
}
);
width = 480;
}
);
unicode = 0053;
},
{
color = 1;
glyphname = T;
lastChange = "2016-10-22 11:28:31 +0000";
layers = (
{
layerId = "262880E7-CFE1-4BDA-902E-E24798F3240A";
paths = (
{
closed = 1;
nodes = (
"214 0 LINE",
"214 689 LINE",
"192 689 LINE",
"192 0 LINE"
);
},
{
closed = 1;
nodes = (
"392 679 LINE",
"392 700 LINE",
"22 700 LINE",
"22 679 LINE"
);
}
);
width = 414;
},
{
layerId = "4E2227F3-52E4-4048-A8EE-327B486EF0A4";
paths = (
{
closed = 1;
nodes = (
"334 0 LINE",
"334 689 LINE",
"146 689 LINE",
"146 0 LINE"
);
},
{
closed = 1;
nodes = (
"476 540 LINE",
"476 700 LINE",
"8 700 LINE",
"8 540 LINE"
);
}
);
width = 484;
}
);
unicode = 0054;
},
{
color = 1;
glyphname = U;
lastChange = "2016-10-22 11:28:31 +0000";
layers = (
{
layerId = "262880E7-CFE1-4BDA-902E-E24798F3240A";
paths = (
{
closed = 1;
nodes = (
"373 -9 OFFCURVE",
"441 56 OFFCURVE",
"441 154 CURVE SMOOTH",
"441 700 LINE",
"419 700 LINE",
"419 152 LINE SMOOTH",
"419 68 OFFCURVE",
"359 12 OFFCURVE",
"270 12 CURVE SMOOTH",
"181 12 OFFCURVE",
"121 68 OFFCURVE",
"121 152 CURVE SMOOTH",
"121 700 LINE",
"99 700 LINE",
"99 154 LINE SMOOTH",
"99 56 OFFCURVE",
"167 -9 OFFCURVE",
"270 -9 CURVE SMOOTH"
);
}
);
width = 540;
},
{
layerId = "4E2227F3-52E4-4048-A8EE-327B486EF0A4";
paths = (
{
closed = 1;
nodes = (
"396 -8 OFFCURVE",
"488 72 OFFCURVE",
"488 192 CURVE SMOOTH",
"488 700 LINE",
"300 700 LINE",
"300 194 LINE SMOOTH",
"300 169 OFFCURVE",
"283 152 OFFCURVE",
"258 152 CURVE SMOOTH",
"233 152 OFFCURVE",
"216 169 OFFCURVE",
"216 194 CURVE SMOOTH",
"216 700 LINE",
"28 700 LINE",
"28 192 LINE SMOOTH",
"28 72 OFFCURVE",
"120 -8 OFFCURVE",
"258 -8 CURVE SMOOTH"
);
}
);
width = 516;
}
);
unicode = 0055;
},
{
color = 1;
glyphname = V;
lastChange = "2016-10-22 11:46:08 +0000";
layers = (
{
layerId = "262880E7-CFE1-4BDA-902E-E24798F3240A";
paths = (
{
closed = 1;
nodes = (
"234 0 LINE",
"435 700 LINE",
"413 700 LINE",
"223 42 LINE",
"33 700 LINE",
"11 700 LINE",
"212 0 LINE"
);
}
);
width = 446;
},
{
layerId = "4E2227F3-52E4-4048-A8EE-327B486EF0A4";
paths = (
{
closed = 1;
nodes = (
"374 0 LINE",
"538 700 LINE",
"350 700 LINE",
"278 251 LINE",
"200 700 LINE",
"12 700 LINE",
"176 0 LINE"
);
}
);
width = 550;
}
);
unicode = 0056;
},
{
color = 1;
glyphname = W;
lastChange = "2016-10-22 11:28:31 +0000";
layers = (
{
layerId = "262880E7-CFE1-4BDA-902E-E24798F3240A";
paths = (
{
closed = 1;
nodes = (
"188 0 LINE",
"337 657 LINE",
"482 0 LINE",
"504 0 LINE",
"661 700 LINE",
"639 700 LINE",
"494 40 LINE",
"345 700 LINE",
"327 700 LINE",
"178 40 LINE",
"33 700 LINE",
"11 700 LINE",
"166 0 LINE"
);
}
);
width = 683;
},
{
layerId = "4E2227F3-52E4-4048-A8EE-327B486EF0A4";
paths = (
{
closed = 1;
nodes = (
"309 0 LINE",
"357 362 LINE",
"401 0 LINE",
"568 0 LINE",
"703 700 LINE",
"515 700 LINE",
"485 342 LINE",
"435 700 LINE",
"282 700 LINE",
"232 342 LINE",
"202 700 LINE",
"12 700 LINE",
"147 0 LINE"
);
}
);
width = 715;
}
);
unicode = 0057;
},
{
color = 1;
glyphname = X;
lastChange = "2016-10-22 11:18:42 +0000";
layers = (
{
layerId = "262880E7-CFE1-4BDA-902E-E24798F3240A";
paths = (
{
closed = 1;
nodes = (
"36 0 LINE",
"211 330 LINE",
"386 0 LINE",
"411 0 LINE",
"222 349 LINE",
"411 700 LINE",
"386 700 LINE",
"211 369 LINE",
"36 700 LINE",
"11 700 LINE",
"200 350 LINE",
"11 0 LINE"
);
}
);
width = 422;
},
{
layerId = "4E2227F3-52E4-4048-A8EE-327B486EF0A4";
paths = (
{
closed = 1;
nodes = (
"195 0 LINE",
"249 162 LINE",
"302 0 LINE",
"493 0 LINE",
"348 350 LINE",
"493 700 LINE",
"301 700 LINE",
"249 537 LINE",
"196 700 LINE",
"4 700 LINE",
"149 350 LINE",
"4 0 LINE"
);
}
);
width = 497;
}
);
unicode = 0058;
},
{
color = 1;
glyphname = Y;
lastChange = "2016-10-22 11:28:31 +0000";
layers = (
{
layerId = "262880E7-CFE1-4BDA-902E-E24798F3240A";
paths = (
{
closed = 1;
nodes = (
"218 0 LINE",
"218 339 LINE",
"403 700 LINE",
"381 700 LINE",
"207 358 LINE",
"33 700 LINE",
"11 700 LINE",
"196 339 LINE",
"196 0 LINE"
);
}
);
width = 414;
},
{
layerId = "4E2227F3-52E4-4048-A8EE-327B486EF0A4";
paths = (
{
closed = 1;
nodes = (
"356 2 LINE",
"356 257 LINE",
"521 700 LINE",
"331 700 LINE",
"263 462 LINE",
"194 700 LINE",
"4 700 LINE",
"168 257 LINE",
"168 2 LINE"
);
}
);
width = 525;
},
{
associatedMasterId = "262880E7-CFE1-4BDA-902E-E24798F3240A";
layerId = "394D83DF-4BD1-4276-9A3C-19912AD5F0BB";
name = "Oct 20 16, 01:26";
paths = (
{
closed = 1;
nodes = (
"404 700 LINE",
"382 700 LINE",
"208 360 LINE",
"34 700 LINE",
"12 700 LINE",
"208 318 LINE"
);
},
{
closed = 1;
nodes = (
"219 0 LINE",
"219 350 LINE",
"197 350 LINE",
"197 0 LINE"
);
}
);
width = 416;
}
);
unicode = 0059;
},
{
color = 1;
glyphname = Z;
lastChange = "2016-10-22 11:28:31 +0000";
layers = (
{
layerId = "262880E7-CFE1-4BDA-902E-E24798F3240A";
paths = (
{
closed = 1;
nodes = (
"381 0 LINE",
"381 21 LINE",
"58 21 LINE",
"381 679 LINE",
"381 700 LINE",
"33 700 LINE",
"33 679 LINE",
"357 679 LINE",
"33 21 LINE",
"33 0 LINE"
);
}
);
width = 403;
},
{
layerId = "4E2227F3-52E4-4048-A8EE-327B486EF0A4";
paths = (
{
closed = 1;
nodes = (
"422 0 LINE",
"422 160 LINE",
"182 160 LINE",
"422 540 LINE",
"422 700 LINE",
"12 700 LINE",
"12 540 LINE",
"251 540 LINE",
"12 160 LINE",
"12 0 LINE"
);
}
);
width = 438;
}
);
unicode = 005A;
},
{
color = 1;
glyphname = a;
lastChange = "2016-10-22 11:28:31 +0000";
layers = (
{
layerId = "262880E7-CFE1-4BDA-902E-E24798F3240A";
paths = (
{
closed = 1;
nodes = (
"332 -5 OFFCURVE",
"397 56 OFFCURVE",
"397 161 CURVE SMOOTH",
"397 339 LINE SMOOTH",
"397 438 OFFCURVE",
"338 505 OFFCURVE",
"232 505 CURVE SMOOTH",
"129 505 OFFCURVE",
"66 442 OFFCURVE",
"66 339 CURVE SMOOTH",
"66 161 LINE SMOOTH",
"66 58 OFFCURVE",
"131 -5 OFFCURVE",
"234 -5 CURVE SMOOTH"
);
},
{
closed = 1;
nodes = (
"143 16 OFFCURVE",
"88 70 OFFCURVE",
"88 158 CURVE SMOOTH",
"88 342 LINE SMOOTH",
"88 430 OFFCURVE",
"143 484 OFFCURVE",
"233 484 CURVE SMOOTH",
"323 484 OFFCURVE",
"378 430 OFFCURVE",
"378 342 CURVE SMOOTH",
"378 158 LINE SMOOTH",
"378 70 OFFCURVE",
"323 16 OFFCURVE",
"233 16 CURVE SMOOTH"
);
},
{
closed = 1;
nodes = (
"400 0 LINE",
"400 500 LINE",
"378 500 LINE",
"378 0 LINE"
);
}
);
width = 488;
},
{
layerId = "4E2227F3-52E4-4048-A8EE-327B486EF0A4";
paths = (
{
closed = 1;
nodes = (
"276 -4 OFFCURVE",
"343 73 OFFCURVE",
"343 178 CURVE SMOOTH",
"343 322 LINE SMOOTH",
"343 427 OFFCURVE",
"276 504 OFFCURVE",
"163 504 CURVE SMOOTH",
"83 504 OFFCURVE",
"16 465 OFFCURVE",
"16 358 CURVE SMOOTH",
"16 142 LINE SMOOTH",
"16 35 OFFCURVE",
"83 -4 OFFCURVE",
"163 -4 CURVE SMOOTH"
);
},
{
closed = 1;
nodes = (
"216 146 OFFCURVE",
"204 158 OFFCURVE",
"204 178 CURVE SMOOTH",
"204 322 LINE SMOOTH",
"204 342 OFFCURVE",
"216 354 OFFCURVE",
"233 354 CURVE SMOOTH",
"250 354 OFFCURVE",
"262 342 OFFCURVE",
"262 322 CURVE",
"262 178 LINE",
"262 158 OFFCURVE",
"250 146 OFFCURVE",
"233 146 CURVE SMOOTH"
);
},
{
closed = 1;
nodes = (
"450 1 LINE",
"450 501 LINE",
"262 501 LINE",
"262 1 LINE"
);
}
);
width = 474;
}
);
unicode = 0061;
},
{
color = 1;
glyphname = b;
lastChange = "2016-10-22 11:28:31 +0000";
layers = (
{
layerId = "262880E7-CFE1-4BDA-902E-E24798F3240A";
paths = (
{
closed = 1;
nodes = (
"357 -5 OFFCURVE",
"422 58 OFFCURVE",
"422 161 CURVE SMOOTH",
"422 339 LINE SMOOTH",
"422 442 OFFCURVE",
"359 505 OFFCURVE",
"256 505 CURVE SMOOTH",
"154 505 OFFCURVE",
"91 442 OFFCURVE",
"91 339 CURVE SMOOTH",
"91 161 LINE SMOOTH",
"91 58 OFFCURVE",
"152 -5 OFFCURVE",
"254 -5 CURVE SMOOTH"
);
},
{
closed = 1;
nodes = (
"165 16 OFFCURVE",
"110 69 OFFCURVE",
"110 158 CURVE SMOOTH",
"110 342 LINE SMOOTH",
"110 430 OFFCURVE",
"165 484 OFFCURVE",
"255 484 CURVE SMOOTH",
"345 484 OFFCURVE",
"400 430 OFFCURVE",
"400 342 CURVE SMOOTH",
"400 158 LINE SMOOTH",
"400 70 OFFCURVE",
"345 16 OFFCURVE",
"255 16 CURVE SMOOTH"
);
},
{
closed = 1;
nodes = (
"110 0 LINE",
"110 700 LINE",
"88 700 LINE",
"88 0 LINE"
);
}
);
width = 488;
},
{
layerId = "4E2227F3-52E4-4048-A8EE-327B486EF0A4";
paths = (
{
closed = 1;
nodes = (
"391 -4 OFFCURVE",
"458 35 OFFCURVE",
"458 142 CURVE SMOOTH",
"458 358 LINE SMOOTH",
"458 465 OFFCURVE",
"391 504 OFFCURVE",
"311 504 CURVE SMOOTH",
"198 504 OFFCURVE",
"131 427 OFFCURVE",
"131 322 CURVE SMOOTH",
"131 178 LINE SMOOTH",
"131 73 OFFCURVE",
"198 -4 OFFCURVE",
"311 -4 CURVE SMOOTH"
);
},
{
closed = 1;
nodes = (
"224 146 OFFCURVE",
"212 158 OFFCURVE",
"212 178 CURVE",
"212 322 LINE",
"212 342 OFFCURVE",
"224 354 OFFCURVE",
"241 354 CURVE SMOOTH",
"258 354 OFFCURVE",
"270 342 OFFCURVE",
"270 322 CURVE SMOOTH",
"270 178 LINE SMOOTH",
"270 158 OFFCURVE",
"258 146 OFFCURVE",
"241 146 CURVE SMOOTH"
);
},
{
closed = 1;
nodes = (
"212 1 LINE",
"212 701 LINE",
"24 701 LINE",
"24 1 LINE"
);
}
);
width = 478;
}
);
unicode = 0062;
},
{
color = 1;
glyphname = c;
lastChange = "2016-10-22 11:28:31 +0000";
layers = (
{
layerId = "262880E7-CFE1-4BDA-902E-E24798F3240A";
paths = (
{
closed = 1;
nodes = (
"338 -5 OFFCURVE",
"406 61 OFFCURVE",
"406 161 CURVE SMOOTH",
"406 162 LINE",
"384 162 LINE",
"384 158 LINE SMOOTH",
"384 73 OFFCURVE",
"324 16 OFFCURVE",
"236 16 CURVE SMOOTH",
"148 16 OFFCURVE",
"88 73 OFFCURVE",
"88 158 CURVE SMOOTH",
"88 342 LINE SMOOTH",
"88 427 OFFCURVE",
"148 484 OFFCURVE",
"236 484 CURVE SMOOTH",
"324 484 OFFCURVE",
"384 427 OFFCURVE",
"384 342 CURVE SMOOTH",
"384 338 LINE",
"406 338 LINE",
"406 339 LINE SMOOTH",
"406 439 OFFCURVE",
"338 505 OFFCURVE",
"236 505 CURVE SMOOTH",
"134 505 OFFCURVE",
"66 439 OFFCURVE",
"66 339 CURVE SMOOTH",
"66 161 LINE SMOOTH",
"66 61 OFFCURVE",
"134 -5 OFFCURVE",
"236 -5 CURVE SMOOTH"
);
}
);
width = 450;
},
{
layerId = "4E2227F3-52E4-4048-A8EE-327B486EF0A4";
paths = (
{
closed = 1;
nodes = (
"371 -4 OFFCURVE",
"454 72 OFFCURVE",
"454 185 CURVE SMOOTH",
"454 222 LINE",
"266 222 LINE",
"266 178 LINE SMOOTH",
"266 159 OFFCURVE",
"254 146 OFFCURVE",
"237 146 CURVE SMOOTH",
"220 146 OFFCURVE",
"208 159 OFFCURVE",
"208 178 CURVE SMOOTH",
"208 322 LINE SMOOTH",
"208 341 OFFCURVE",
"220 354 OFFCURVE",
"237 354 CURVE SMOOTH",
"254 354 OFFCURVE",
"266 341 OFFCURVE",
"266 322 CURVE SMOOTH",
"266 279 LINE",
"454 278 LINE",
"454 315 LINE SMOOTH",
"454 428 OFFCURVE",
"371 504 OFFCURVE",
"237 504 CURVE SMOOTH",
"103 504 OFFCURVE",
"20 428 OFFCURVE",
"20 315 CURVE SMOOTH",
"20 185 LINE SMOOTH",
"20 72 OFFCURVE",
"103 -4 OFFCURVE",
"237 -4 CURVE SMOOTH"
);
}
);
width = 470;
},
{
associatedMasterId = "262880E7-CFE1-4BDA-902E-E24798F3240A";
layerId = "AA68AA89-7B7F-412A-BC4D-3A50F432D1F5";
name = "Medium {85,100}";
paths = (
{
closed = 1;
nodes = (
"349 -5 OFFCURVE",
"422 65 OFFCURVE",
"422 170 CURVE SMOOTH",
"422 185 LINE",
"338 185 LINE",
"338 176 LINE SMOOTH",
"338 115 OFFCURVE",
"296 75 OFFCURVE",
"234 75 CURVE SMOOTH",
"172 75 OFFCURVE",
"130 115 OFFCURVE",
"130 176 CURVE SMOOTH",
"130 324 LINE SMOOTH",
"130 385 OFFCURVE",
"172 425 OFFCURVE",
"234 425 CURVE SMOOTH",
"296 425 OFFCURVE",
"338 385 OFFCURVE",
"338 324 CURVE SMOOTH",
"338 316 LINE",
"422 315 LINE",
"422 330 LINE SMOOTH",
"422 435 OFFCURVE",
"349 505 OFFCURVE",
"234 505 CURVE SMOOTH",
"119 505 OFFCURVE",
"46 435 OFFCURVE",
"46 330 CURVE SMOOTH",
"46 170 LINE SMOOTH",
"46 65 OFFCURVE",
"119 -5 OFFCURVE",
"234 -5 CURVE SMOOTH"
);
}
);
width = 453;
}
);
unicode = 0063;
},
{
color = 1;
glyphname = d;
lastChange = "2016-10-22 11:28:31 +0000";
layers = (
{
layerId = "262880E7-CFE1-4BDA-902E-E24798F3240A";
paths = (
{
closed = 1;
nodes = (
"333 -5 OFFCURVE",
"397 58 OFFCURVE",
"397 161 CURVE SMOOTH",
"397 339 LINE SMOOTH",
"397 442 OFFCURVE",
"334 505 OFFCURVE",
"232 505 CURVE SMOOTH",
"129 505 OFFCURVE",
"66 442 OFFCURVE",
"66 339 CURVE SMOOTH",
"66 161 LINE SMOOTH",
"66 58 OFFCURVE",
"130 -5 OFFCURVE",
"233 -5 CURVE SMOOTH"
);
},
{
closed = 1;
nodes = (
"143 16 OFFCURVE",
"88 70 OFFCURVE",
"88 158 CURVE SMOOTH",
"88 342 LINE SMOOTH",
"88 430 OFFCURVE",
"143 484 OFFCURVE",
"233 484 CURVE SMOOTH",
"323 484 OFFCURVE",
"378 430 OFFCURVE",
"378 342 CURVE SMOOTH",
"378 158 LINE SMOOTH",
"378 69 OFFCURVE",
"323 16 OFFCURVE",
"233 16 CURVE SMOOTH"
);
},
{
closed = 1;
nodes = (
"400 0 LINE",
"400 700 LINE",
"378 700 LINE",
"378 0 LINE"
);
}
);
width = 488;
},
{
layerId = "4E2227F3-52E4-4048-A8EE-327B486EF0A4";
paths = (
{
closed = 1;
nodes = (
"280 -4 OFFCURVE",
"347 73 OFFCURVE",
"347 178 CURVE SMOOTH",
"347 322 LINE SMOOTH",
"347 427 OFFCURVE",
"280 504 OFFCURVE",
"167 504 CURVE SMOOTH",
"87 504 OFFCURVE",
"20 465 OFFCURVE",
"20 358 CURVE SMOOTH",
"20 142 LINE SMOOTH",
"20 35 OFFCURVE",
"87 -4 OFFCURVE",
"167 -4 CURVE SMOOTH"
);
},
{
closed = 1;
nodes = (
"220 146 OFFCURVE",
"208 158 OFFCURVE",
"208 178 CURVE SMOOTH",
"208 322 LINE SMOOTH",
"208 342 OFFCURVE",
"220 354 OFFCURVE",
"237 354 CURVE SMOOTH",
"254 354 OFFCURVE",
"266 342 OFFCURVE",
"266 322 CURVE",
"266 178 LINE",
"266 158 OFFCURVE",
"254 146 OFFCURVE",
"237 146 CURVE SMOOTH"
);
},
{
closed = 1;
nodes = (
"454 1 LINE",
"454 701 LINE",
"266 701 LINE",
"266 1 LINE"
);
}
);
width = 478;
}
);
unicode = 0064;
},
{
color = 1;
glyphname = e;
lastChange = "2016-10-22 11:28:31 +0000";
layers = (
{
layerId = "262880E7-CFE1-4BDA-902E-E24798F3240A";
paths = (
{
closed = 1;
nodes = (
"340 -5 OFFCURVE",
"408 61 OFFCURVE",
"408 161 CURVE SMOOTH",
"408 162 LINE",
"386 162 LINE",
"386 158 LINE SMOOTH",
"386 73 OFFCURVE",
"327 16 OFFCURVE",
"237 16 CURVE SMOOTH",
"147 16 OFFCURVE",
"88 73 OFFCURVE",
"88 158 CURVE SMOOTH",
"88 342 LINE SMOOTH",
"88 427 OFFCURVE",
"147 484 OFFCURVE",
"237 484 CURVE SMOOTH",
"327 484 OFFCURVE",
"386 427 OFFCURVE",
"386 342 CURVE SMOOTH",
"386 260 LINE",
"74 260 LINE",
"74 239 LINE",
"408 239 LINE",
"408 339 LINE SMOOTH",
"408 439 OFFCURVE",
"340 505 OFFCURVE",
"237 505 CURVE SMOOTH",
"134 505 OFFCURVE",
"66 439 OFFCURVE",
"66 339 CURVE SMOOTH",
"66 161 LINE SMOOTH",
"66 61 OFFCURVE",
"134 -5 OFFCURVE",
"237 -5 CURVE SMOOTH"
);
}
);
width = 463;
},
{
layerId = "4E2227F3-52E4-4048-A8EE-327B486EF0A4";
paths = (
{
closed = 1;
nodes = (
"371 -4 OFFCURVE",
"454 72 OFFCURVE",
"454 185 CURVE SMOOTH",
"454 186 LINE",
"266 186 LINE",
"266 178 LINE SMOOTH",
"266 159 OFFCURVE",
"254 146 OFFCURVE",
"237 146 CURVE SMOOTH",
"220 146 OFFCURVE",
"208 159 OFFCURVE",
"208 178 CURVE SMOOTH",
"208 322 LINE SMOOTH",
"208 341 OFFCURVE",
"220 354 OFFCURVE",
"237 354 CURVE SMOOTH",
"254 354 OFFCURVE",
"266 341 OFFCURVE",
"266 322 CURVE SMOOTH",
"266 293 LINE",
"189 293 LINE",
"189 213 LINE",
"454 213 LINE",
"454 315 LINE SMOOTH",
"454 428 OFFCURVE",
"371 504 OFFCURVE",
"237 504 CURVE SMOOTH",
"103 504 OFFCURVE",
"20 428 OFFCURVE",
"20 315 CURVE SMOOTH",
"20 185 LINE SMOOTH",
"20 72 OFFCURVE",
"103 -4 OFFCURVE",
"237 -4 CURVE SMOOTH"
);
}
);
width = 474;
},
{
associatedMasterId = "4E2227F3-52E4-4048-A8EE-327B486EF0A4";
layerId = "F43F543C-68B1-49FC-928D-4F50CE8623A2";
name = "Bold{137,100}";
paths = (
{
closed = 1;
nodes = (
"359 -4 OFFCURVE",
"437 69 OFFCURVE",
"437 178 CURVE SMOOTH",
"437 179 LINE",
"300 179 LINE",
"300 172 LINE SMOOTH",
"300 132 OFFCURVE",
"274 106 OFFCURVE",
"234 106 CURVE SMOOTH",
"195 106 OFFCURVE",
"168 132 OFFCURVE",
"168 172 CURVE SMOOTH",
"168 328 LINE SMOOTH",
"168 368 OFFCURVE",
"195 394 OFFCURVE",
"234 394 CURVE SMOOTH",
"274 394 OFFCURVE",
"300 368 OFFCURVE",
"300 328 CURVE SMOOTH",
"300 303 LINE",
"151 303 LINE",
"151 210 LINE",
"437 210 LINE",
"437 322 LINE SMOOTH",
"437 431 OFFCURVE",
"359 504 OFFCURVE",
"234 504 CURVE SMOOTH",
"110 504 OFFCURVE",
"31 431 OFFCURVE",
"31 322 CURVE SMOOTH",
"31 178 LINE SMOOTH",
"31 69 OFFCURVE",
"110 -4 OFFCURVE",
"234 -4 CURVE SMOOTH"
);
}
);
width = 465;
}
);
unicode = 0065;
},
{
color = 1;
glyphname = f;
lastChange = "2016-10-22 11:45:04 +0000";
layers = (
{
layerId = "262880E7-CFE1-4BDA-902E-E24798F3240A";
paths = (
{
closed = 1;
nodes = (
"143 0 LINE",
"143 550 LINE SMOOTH",
"143 637 OFFCURVE",
"196 689 OFFCURVE",
"292 689 CURVE",
"292 710 LINE",
"182 710 OFFCURVE",
"121 650 OFFCURVE",
"121 550 CURVE SMOOTH",
"121 0 LINE"
);
},
{
closed = 1;
nodes = (
"262 479 LINE",
"262 500 LINE",
"42 500 LINE",
"42 479 LINE"
);
}
);
width = 273;
},
{
layerId = "4E2227F3-52E4-4048-A8EE-327B486EF0A4";
paths = (
{
closed = 1;
nodes = (
"242 0 LINE",
"242 532 LINE",
"242 552 OFFCURVE",
"264 558 OFFCURVE",
"286 558 CURVE",
"286 700 LINE",
"138 707 OFFCURVE",
"54 697 OFFCURVE",
"54 556 CURVE",
"54 0 LINE"
);
},
{
closed = 1;
nodes = (
"306 340 LINE",
"306 500 LINE",
"0 500 LINE",
"0 340 LINE"
);
}
);
width = 314;
}
);
unicode = 0066;
},
{
color = 1;
glyphname = g;
lastChange = "2016-10-22 11:44:21 +0000";
layers = (
{
layerId = "262880E7-CFE1-4BDA-902E-E24798F3240A";
paths = (
{
closed = 1;
nodes = (
"143 16 OFFCURVE",
"88 70 OFFCURVE",
"88 158 CURVE SMOOTH",
"88 342 LINE SMOOTH",
"88 430 OFFCURVE",
"143 484 OFFCURVE",
"233 484 CURVE SMOOTH",
"323 484 OFFCURVE",
"378 429 OFFCURVE",
"378 342 CURVE SMOOTH",
"378 158 LINE SMOOTH",
"378 70 OFFCURVE",
"323 16 OFFCURVE",
"233 16 CURVE SMOOTH"
);
},
{
closed = 1;
nodes = (
"334 -5 OFFCURVE",
"397 58 OFFCURVE",
"397 161 CURVE SMOOTH",
"397 339 LINE SMOOTH",
"397 442 OFFCURVE",
"334 505 OFFCURVE",
"232 505 CURVE SMOOTH",
"129 505 OFFCURVE",
"66 442 OFFCURVE",
"66 339 CURVE SMOOTH",
"66 161 LINE SMOOTH",
"66 58 OFFCURVE",
"129 -5 OFFCURVE",
"232 -5 CURVE SMOOTH"
);
},
{
closed = 1;
nodes = (
"327 -206 OFFCURVE",
"400 -140 OFFCURVE",
"400 0 CURVE SMOOTH",
"400 500 LINE",
"378 500 LINE",
"378 0 LINE SMOOTH",
"378 -126 OFFCURVE",
"312 -185 OFFCURVE",
"193 -181 CURVE",
"193 -202 LINE"
);
}
);
width = 488;
},
{
layerId = "4E2227F3-52E4-4048-A8EE-327B486EF0A4";
paths = (
{
closed = 1;
nodes = (
"216 151 OFFCURVE",
"204 163 OFFCURVE",
"204 183 CURVE SMOOTH",
"204 322 LINE SMOOTH",
"204 342 OFFCURVE",
"216 354 OFFCURVE",
"233 354 CURVE SMOOTH",
"250 354 OFFCURVE",
"262 342 OFFCURVE",
"262 322 CURVE",
"262 183 LINE",
"262 163 OFFCURVE",
"250 151 OFFCURVE",
"233 151 CURVE SMOOTH"
);
},
{
closed = 1;
nodes = (
"286 1 OFFCURVE",
"343 98 OFFCURVE",
"343 203 CURVE SMOOTH",
"343 322 LINE SMOOTH",
"343 427 OFFCURVE",
"276 504 OFFCURVE",
"163 504 CURVE SMOOTH",
"83 504 OFFCURVE",
"16 465 OFFCURVE",
"16 358 CURVE SMOOTH",
"16 147 LINE SMOOTH",
"16 40 OFFCURVE",
"73 1 OFFCURVE",
"153 1 CURVE SMOOTH"
);
},
{
closed = 1;
nodes = (
"393 -226 OFFCURVE",
"450 -115 OFFCURVE",
"450 34 CURVE SMOOTH",
"450 500 LINE",
"262 500 LINE",
"262 34 LINE SMOOTH",
"262 -14 OFFCURVE",
"245 -44 OFFCURVE",
"101 -36 CURVE",
"101 -207 LINE"
);
}
);
width = 470;
}
);
unicode = 0067;
},
{
color = 1;
glyphname = h;
lastChange = "2016-10-22 11:28:31 +0000";
layers = (
{
layerId = "262880E7-CFE1-4BDA-902E-E24798F3240A";
paths = (
{
closed = 1;
nodes = (
"420 0 LINE",
"420 344 LINE SMOOTH",
"420 443 OFFCURVE",
"361 504 OFFCURVE",
"266 504 CURVE SMOOTH",
"164 504 OFFCURVE",
"91 443 OFFCURVE",
"91 343 CURVE",
"110 343 LINE",
"110 430 OFFCURVE",
"175 483 OFFCURVE",
"264 483 CURVE SMOOTH",
"347 483 OFFCURVE",
"398 429 OFFCURVE",
"398 341 CURVE SMOOTH",
"398 0 LINE"
);
},
{
closed = 1;
nodes = (
"110 0 LINE",
"110 700 LINE",
"88 700 LINE",
"88 0 LINE"
);
}
);
width = 508;
},
{
layerId = "4E2227F3-52E4-4048-A8EE-327B486EF0A4";
paths = (
{
closed = 1;
nodes = (
"458 1 LINE",
"458 358 LINE SMOOTH",
"458 465 OFFCURVE",
"401 504 OFFCURVE",
"321 504 CURVE SMOOTH",
"208 504 OFFCURVE",
"141 427 OFFCURVE",
"141 322 CURVE",
"212 322 LINE",
"212 342 OFFCURVE",
"224 354 OFFCURVE",
"241 354 CURVE SMOOTH",
"258 354 OFFCURVE",
"270 342 OFFCURVE",
"270 322 CURVE SMOOTH",
"270 1 LINE"
);
},
{
closed = 1;
nodes = (
"212 1 LINE",
"212 700 LINE",
"24 700 LINE",
"24 1 LINE"
);
}
);
width = 482;
}
);
unicode = 0068;
},
{
color = 1;
glyphname = i;
lastChange = "2016-10-22 11:28:31 +0000";
layers = (
{
layerId = "262880E7-CFE1-4BDA-902E-E24798F3240A";
paths = (
{
closed = 1;
nodes = (
"110 0 LINE",
"110 500 LINE",
"88 500 LINE",
"88 0 LINE"
);
},
{
closed = 1;
nodes = (
"116 628 OFFCURVE",
"130 642 OFFCURVE",
"130 659 CURVE SMOOTH",
"130 675 OFFCURVE",
"116 689 OFFCURVE",
"99 689 CURVE SMOOTH",
"82 689 OFFCURVE",
"68 675 OFFCURVE",
"68 659 CURVE SMOOTH",
"68 642 OFFCURVE",
"82 628 OFFCURVE",
"99 628 CURVE SMOOTH"
);
}
);
width = 209;
},
{
layerId = "4E2227F3-52E4-4048-A8EE-327B486EF0A4";
paths = (
{
closed = 1;
nodes = (
"212 0 LINE",
"212 500 LINE",
"24 500 LINE",
"24 0 LINE"
);
},
{
closed = 1;
nodes = (
"181 534 OFFCURVE",
"223 576 OFFCURVE",
"223 639 CURVE SMOOTH",
"223 702 OFFCURVE",
"181 744 OFFCURVE",
"118 744 CURVE SMOOTH",
"55 744 OFFCURVE",
"13 702 OFFCURVE",
"13 639 CURVE SMOOTH",
"13 576 OFFCURVE",
"55 534 OFFCURVE",
"118 534 CURVE SMOOTH"
);
}
);
width = 236;
}
);
unicode = 0069;
},
{
color = 1;
glyphname = j;
lastChange = "2016-10-22 11:28:31 +0000";
layers = (
{
layerId = "262880E7-CFE1-4BDA-902E-E24798F3240A";
paths = (
{
closed = 1;
nodes = (
"118 669 OFFCURVE",
"130 681 OFFCURVE",
"130 700 CURVE SMOOTH",
"130 719 OFFCURVE",
"118 730 OFFCURVE",
"99 730 CURVE SMOOTH",
"80 730 OFFCURVE",
"68 719 OFFCURVE",
"68 700 CURVE SMOOTH",
"68 681 OFFCURVE",
"80 669 OFFCURVE",
"99 669 CURVE SMOOTH"
);
},
{
closed = 1;
nodes = (
"58 -211 OFFCURVE",
"110 -159 OFFCURVE",
"110 -74 CURVE SMOOTH",
"110 500 LINE",
"88 500 LINE",
"88 -74 LINE SMOOTH",
"88 -146 OFFCURVE",
"45 -190 OFFCURVE",
"-26 -190 CURVE",
"-26 -211 LINE"
);
}
);
width = 198;
},
{
layerId = "4E2227F3-52E4-4048-A8EE-327B486EF0A4";
paths = (
{
closed = 1;
nodes = (
"188 534 OFFCURVE",
"231 581 OFFCURVE",
"231 639 CURVE SMOOTH",
"231 697 OFFCURVE",
"179 743 OFFCURVE",
"126 743 CURVE SMOOTH",
"73 743 OFFCURVE",
"21 697 OFFCURVE",
"21 639 CURVE SMOOTH",
"21 581 OFFCURVE",
"64 534 OFFCURVE",
"126 534 CURVE SMOOTH"
);
},
{
closed = 1;
nodes = (
"213 -210 OFFCURVE",
"220 -120 OFFCURVE",
"220 29 CURVE SMOOTH",
"220 495 LINE",
"32 495 LINE",
"32 29 LINE SMOOTH",
"32 -19 OFFCURVE",
"15 -49 OFFCURVE",
"-69 -41 CURVE",
"-69 -201 LINE"
);
}
);
width = 244;
}
);
unicode = 006A;
},
{
color = 1;
glyphname = k;
lastChange = "2016-10-22 11:28:31 +0000";
layers = (
{
guideLines = (
{
angle = 180;
position = "{275, 0}";
showMeasurement = 1;
},
{
angle = 180;
position = "{221, 332}";
showMeasurement = 1;
}
);
layerId = "262880E7-CFE1-4BDA-902E-E24798F3240A";
paths = (
{
closed = 1;
nodes = (
"367 0 LINE",
"117 250 LINE",
"367 500 LINE",
"341 500 LINE",
"91 250 LINE",
"341 0 LINE"
);
},
{
closed = 1;
nodes = (
"110 0 LINE",
"110 700 LINE",
"88 700 LINE",
"88 0 LINE"
);
}
);
width = 356;
},
{
layerId = "4E2227F3-52E4-4048-A8EE-327B486EF0A4";
paths = (
{
closed = 1;
nodes = (
"469 0 LINE",
"329 250 LINE",
"473 500 LINE",
"277 500 LINE",
"156 256 LINE",
"273 0 LINE"
);
},
{
closed = 1;
nodes = (
"212 0 LINE",
"212 700 LINE",
"24 700 LINE",
"24 0 LINE"
);
}
);
width = 477;
},
{
associatedMasterId = "4E2227F3-52E4-4048-A8EE-327B486EF0A4";
layerId = "3F40B02A-8325-4017-AA07-0CC2F5060827";
name = "Medium{85,100}";
paths = (
{
closed = 1;
nodes = (
"404 0 LINE",
"211 250 LINE",
"404 500 LINE",
"299 500 LINE",
"117 252 LINE",
"299 0 LINE"
);
},
{
closed = 1;
nodes = (
"150 0 LINE",
"150 700 LINE",
"66 700 LINE",
"66 0 LINE"
);
}
);
width = 396;
}
);
unicode = 006B;
},
{
color = 1;
glyphname = l;
lastChange = "2016-10-22 11:28:31 +0000";
layers = (
{
layerId = "262880E7-CFE1-4BDA-902E-E24798F3240A";
paths = (
{
closed = 1;
nodes = (
"110 0 LINE",
"110 700 LINE",
"88 700 LINE",
"88 0 LINE"
);
}
);
width = 209;
},
{
layerId = "4E2227F3-52E4-4048-A8EE-327B486EF0A4";
paths = (
{
closed = 1;
nodes = (
"216 0 LINE",
"216 700 LINE",
"28 700 LINE",
"28 0 LINE"
);
}
);
width = 244;
}
);
unicode = 006C;
},
{
color = 1;
glyphname = m;
lastChange = "2016-10-22 11:28:31 +0000";
layers = (
{
layerId = "262880E7-CFE1-4BDA-902E-E24798F3240A";
paths = (
{
closed = 1;
nodes = (
"710 0 LINE",
"710 344 LINE SMOOTH",
"710 443 OFFCURVE",
"651 504 OFFCURVE",
"556 504 CURVE SMOOTH",
"454 504 OFFCURVE",
"391 443 OFFCURVE",
"391 343 CURVE",
"410 343 LINE",
"409 428 OFFCURVE",
"464 483 OFFCURVE",
"554 483 CURVE SMOOTH",
"637 483 OFFCURVE",
"688 429 OFFCURVE",
"688 341 CURVE SMOOTH",
"688 0 LINE"
);
},
{
closed = 1;
nodes = (
"110 0 LINE",
"110 500 LINE",
"88 500 LINE",
"88 0 LINE"
);
},
{
closed = 1;
nodes = (
"410 0 LINE",
"410 344 LINE SMOOTH",
"410 443 OFFCURVE",
"351 504 OFFCURVE",
"256 504 CURVE SMOOTH",
"154 504 OFFCURVE",
"91 443 OFFCURVE",
"91 343 CURVE",
"110 343 LINE",
"110 430 OFFCURVE",
"165 483 OFFCURVE",
"254 483 CURVE SMOOTH",
"337 483 OFFCURVE",
"388 429 OFFCURVE",
"388 341 CURVE SMOOTH",
"388 0 LINE"
);
}
);
width = 809;
},
{
layerId = "4E2227F3-52E4-4048-A8EE-327B486EF0A4";
paths = (
{
closed = 1;
nodes = (
"704 1 LINE",
"704 358 LINE SMOOTH",
"704 465 OFFCURVE",
"647 504 OFFCURVE",
"567 504 CURVE SMOOTH",
"454 504 OFFCURVE",
"387 427 OFFCURVE",
"387 322 CURVE",
"458 322 LINE",
"458 342 OFFCURVE",
"470 354 OFFCURVE",
"487 354 CURVE SMOOTH",
"504 354 OFFCURVE",
"516 342 OFFCURVE",
"516 322 CURVE SMOOTH",
"516 1 LINE"
);
},
{
closed = 1;
nodes = (
"212 1 LINE",
"212 501 LINE",
"24 501 LINE",
"24 1 LINE"
);
},
{
closed = 1;
nodes = (
"458 1 LINE",
"458 358 LINE SMOOTH",
"458 465 OFFCURVE",
"401 504 OFFCURVE",
"321 504 CURVE SMOOTH",
"208 504 OFFCURVE",
"141 427 OFFCURVE",
"141 322 CURVE",
"212 322 LINE",
"212 342 OFFCURVE",
"224 354 OFFCURVE",
"241 354 CURVE SMOOTH",
"258 354 OFFCURVE",
"270 342 OFFCURVE",
"270 322 CURVE SMOOTH",
"270 1 LINE"
);
}
);
width = 728;
}
);
unicode = 006D;
},
{
color = 1;
glyphname = n;
lastChange = "2016-10-22 11:28:31 +0000";
layers = (
{
layerId = "262880E7-CFE1-4BDA-902E-E24798F3240A";
paths = (
{
closed = 1;
nodes = (
"420 0 LINE",
"420 344 LINE SMOOTH",
"420 443 OFFCURVE",
"361 504 OFFCURVE",
"266 504 CURVE SMOOTH",
"164 504 OFFCURVE",
"91 443 OFFCURVE",
"91 343 CURVE",
"110 343 LINE",
"110 430 OFFCURVE",
"175 483 OFFCURVE",
"264 483 CURVE SMOOTH",
"347 483 OFFCURVE",
"398 429 OFFCURVE",
"398 341 CURVE SMOOTH",
"398 0 LINE"
);
},
{
closed = 1;
nodes = (
"110 0 LINE",
"110 500 LINE",
"88 500 LINE",
"88 0 LINE"
);
}
);
width = 508;
},
{
layerId = "4E2227F3-52E4-4048-A8EE-327B486EF0A4";
paths = (
{
closed = 1;
nodes = (
"458 1 LINE",
"458 358 LINE SMOOTH",
"458 465 OFFCURVE",
"401 504 OFFCURVE",
"321 504 CURVE SMOOTH",
"208 504 OFFCURVE",
"141 427 OFFCURVE",
"141 322 CURVE",
"212 322 LINE",
"212 342 OFFCURVE",
"224 355 OFFCURVE",
"241 355 CURVE SMOOTH",
"258 355 OFFCURVE",
"270 342 OFFCURVE",
"270 322 CURVE SMOOTH",
"270 1 LINE"
);
},
{
closed = 1;
nodes = (
"212 1 LINE",
"212 501 LINE",
"24 501 LINE",
"24 1 LINE"
);
}
);
width = 482;
}
);
unicode = 006E;
},
{
color = 1;
glyphname = o;
lastChange = "2016-10-22 11:42:17 +0000";
layers = (
{
guideLines = (
{
angle = 180;
position = "{237, 250}";
showMeasurement = 1;
},
{
angle = 120;
position = "{237, 250}";
showMeasurement = 1;
},
{
angle = 60;
position = "{237, 250}";
showMeasurement = 1;
}
);
layerId = "262880E7-CFE1-4BDA-902E-E24798F3240A";
paths = (
{
closed = 1;
nodes = (
"148 16 OFFCURVE",
"88 73 OFFCURVE",
"88 158 CURVE SMOOTH",
"88 342 LINE SMOOTH",
"88 427 OFFCURVE",
"148 484 OFFCURVE",
"237 484 CURVE SMOOTH",
"326 484 OFFCURVE",
"386 427 OFFCURVE",
"386 342 CURVE SMOOTH",
"386 158 LINE SMOOTH",
"386 73 OFFCURVE",
"326 16 OFFCURVE",
"237 16 CURVE SMOOTH"
);
},
{
closed = 1;
nodes = (
"340 -5 OFFCURVE",
"408 61 OFFCURVE",
"408 161 CURVE SMOOTH",
"408 339 LINE SMOOTH",
"408 439 OFFCURVE",
"340 505 OFFCURVE",
"237 505 CURVE SMOOTH",
"134 505 OFFCURVE",
"66 439 OFFCURVE",
"66 339 CURVE SMOOTH",
"66 161 LINE SMOOTH",
"66 61 OFFCURVE",
"134 -5 OFFCURVE",
"237 -5 CURVE SMOOTH"
);
}
);
width = 474;
},
{
layerId = "4E2227F3-52E4-4048-A8EE-327B486EF0A4";
paths = (
{
closed = 1;
nodes = (
"227 146 OFFCURVE",
"215 159 OFFCURVE",
"215 178 CURVE SMOOTH",
"215 322 LINE SMOOTH",
"215 341 OFFCURVE",
"227 354 OFFCURVE",
"244 354 CURVE SMOOTH",
"261 354 OFFCURVE",
"273 341 OFFCURVE",
"273 322 CURVE SMOOTH",
"273 178 LINE SMOOTH",
"273 159 OFFCURVE",
"261 146 OFFCURVE",
"244 146 CURVE SMOOTH"
);
},
{
closed = 1;
nodes = (
"378 -4 OFFCURVE",
"468 72 OFFCURVE",
"468 185 CURVE SMOOTH",
"468 315 LINE SMOOTH",
"468 428 OFFCURVE",
"378 504 OFFCURVE",
"244 504 CURVE SMOOTH",
"110 504 OFFCURVE",
"20 428 OFFCURVE",
"20 315 CURVE SMOOTH",
"20 185 LINE SMOOTH",
"20 72 OFFCURVE",
"110 -4 OFFCURVE",
"244 -4 CURVE SMOOTH"
);
}
);
width = 488;
}
);
unicode = 006F;
},
{
color = 1;
glyphname = p;
lastChange = "2016-10-22 11:28:31 +0000";
layers = (
{
layerId = "262880E7-CFE1-4BDA-902E-E24798F3240A";
paths = (
{
closed = 1;
nodes = (
"359 -5 OFFCURVE",
"422 58 OFFCURVE",
"422 161 CURVE SMOOTH",
"422 339 LINE SMOOTH",
"422 442 OFFCURVE",
"359 505 OFFCURVE",
"256 505 CURVE SMOOTH",
"154 505 OFFCURVE",
"91 442 OFFCURVE",
"91 339 CURVE SMOOTH",
"91 161 LINE SMOOTH",
"91 58 OFFCURVE",
"158 -5 OFFCURVE",
"256 -5 CURVE SMOOTH"
);
},
{
closed = 1;
nodes = (
"110 -200 LINE",
"110 500 LINE",
"88 500 LINE",
"88 -200 LINE"
);
},
{
closed = 1;
nodes = (
"165 16 OFFCURVE",
"110 70 OFFCURVE",
"110 158 CURVE SMOOTH",
"110 342 LINE SMOOTH",
"110 431 OFFCURVE",
"165 484 OFFCURVE",
"255 484 CURVE SMOOTH",
"345 484 OFFCURVE",
"400 430 OFFCURVE",
"400 342 CURVE SMOOTH",
"400 158 LINE SMOOTH",
"400 70 OFFCURVE",
"345 16 OFFCURVE",
"255 16 CURVE SMOOTH"
);
}
);
width = 488;
},
{
layerId = "4E2227F3-52E4-4048-A8EE-327B486EF0A4";
paths = (
{
closed = 1;
nodes = (
"381 -4 OFFCURVE",
"458 35 OFFCURVE",
"458 142 CURVE SMOOTH",
"458 358 LINE SMOOTH",
"458 465 OFFCURVE",
"391 504 OFFCURVE",
"311 504 CURVE SMOOTH",
"198 504 OFFCURVE",
"131 427 OFFCURVE",
"131 322 CURVE SMOOTH",
"131 178 LINE SMOOTH",
"131 73 OFFCURVE",
"188 -4 OFFCURVE",
"301 -4 CURVE SMOOTH"
);
},
{
closed = 1;
nodes = (
"212 -201 LINE",
"212 499 LINE",
"24 499 LINE",
"24 -201 LINE"
);
},
{
closed = 1;
nodes = (
"224 146 OFFCURVE",
"212 158 OFFCURVE",
"212 178 CURVE",
"212 322 LINE",
"212 342 OFFCURVE",
"224 354 OFFCURVE",
"241 354 CURVE SMOOTH",
"258 354 OFFCURVE",
"270 342 OFFCURVE",
"270 322 CURVE SMOOTH",
"270 178 LINE SMOOTH",
"270 158 OFFCURVE",
"258 146 OFFCURVE",
"241 146 CURVE SMOOTH"
);
}
);
width = 478;
}
);
unicode = 0070;
},
{
color = 1;
glyphname = q;
lastChange = "2016-10-22 11:28:31 +0000";
layers = (
{
layerId = "262880E7-CFE1-4BDA-902E-E24798F3240A";
paths = (
{
closed = 1;
nodes = (
"332 -5 OFFCURVE",
"397 58 OFFCURVE",
"397 161 CURVE SMOOTH",
"397 339 LINE SMOOTH",
"397 442 OFFCURVE",
"334 505 OFFCURVE",
"232 505 CURVE SMOOTH",
"129 505 OFFCURVE",
"66 442 OFFCURVE",
"66 339 CURVE SMOOTH",
"66 161 LINE SMOOTH",
"66 58 OFFCURVE",
"129 -5 OFFCURVE",
"232 -5 CURVE SMOOTH"
);
},
{
closed = 1;
nodes = (
"143 16 OFFCURVE",
"88 70 OFFCURVE",
"88 158 CURVE SMOOTH",
"88 342 LINE SMOOTH",
"88 430 OFFCURVE",
"143 484 OFFCURVE",
"233 484 CURVE SMOOTH",
"323 484 OFFCURVE",
"378 431 OFFCURVE",
"378 342 CURVE SMOOTH",
"378 158 LINE SMOOTH",
"378 70 OFFCURVE",
"323 16 OFFCURVE",
"233 16 CURVE SMOOTH"
);
},
{
closed = 1;
nodes = (
"400 -200 LINE",
"400 500 LINE",
"378 500 LINE",
"378 -200 LINE"
);
}
);
width = 488;
},
{
layerId = "4E2227F3-52E4-4048-A8EE-327B486EF0A4";
paths = (
{
closed = 1;
nodes = (
"290 -4 OFFCURVE",
"347 73 OFFCURVE",
"347 178 CURVE SMOOTH",
"347 322 LINE SMOOTH",
"347 427 OFFCURVE",
"280 504 OFFCURVE",
"167 504 CURVE SMOOTH",
"87 504 OFFCURVE",
"20 465 OFFCURVE",
"20 358 CURVE SMOOTH",
"20 142 LINE SMOOTH",
"20 35 OFFCURVE",
"97 -4 OFFCURVE",
"177 -4 CURVE SMOOTH"
);
},
{
closed = 1;
nodes = (
"220 146 OFFCURVE",
"208 158 OFFCURVE",
"208 178 CURVE SMOOTH",
"208 322 LINE SMOOTH",
"208 342 OFFCURVE",
"220 354 OFFCURVE",
"237 354 CURVE SMOOTH",
"254 354 OFFCURVE",
"266 342 OFFCURVE",
"266 322 CURVE",
"266 178 LINE",
"266 158 OFFCURVE",
"254 146 OFFCURVE",
"237 146 CURVE SMOOTH"
);
},
{
closed = 1;
nodes = (
"454 -201 LINE",
"454 499 LINE",
"266 499 LINE",
"266 -201 LINE"
);
}
);
width = 478;
}
);
unicode = 0071;
},
{
color = 1;
glyphname = r;
lastChange = "2016-10-22 11:42:43 +0000";
layers = (
{
layerId = "262880E7-CFE1-4BDA-902E-E24798F3240A";
paths = (
{
closed = 1;
nodes = (
"110 0 LINE",
"110 500 LINE",
"88 500 LINE",
"88 0 LINE"
);
},
{
closed = 1;
nodes = (
"110 341 LINE",
"110 429 OFFCURVE",
"167 483 OFFCURVE",
"249 483 CURVE SMOOTH",
"279 483 OFFCURVE",
"294 476 OFFCURVE",
"312 465 CURVE",
"325 483 LINE",
"304 495 OFFCURVE",
"286 504 OFFCURVE",
"250 504 CURVE SMOOTH",
"156 504 OFFCURVE",
"95 441 OFFCURVE",
"95 341 CURVE"
);
}
);
width = 336;
},
{
layerId = "4E2227F3-52E4-4048-A8EE-327B486EF0A4";
paths = (
{
closed = 1;
nodes = (
"216 1 LINE",
"216 501 LINE",
"28 501 LINE",
"28 1 LINE"
);
},
{
closed = 1;
nodes = (
"216 272 LINE",
"216 293 OFFCURVE",
"233 317 OFFCURVE",
"256 326 CURVE SMOOTH",
"282 336 OFFCURVE",
"319 332 OFFCURVE",
"329 324 CURVE",
"355 485 LINE",
"336 505 OFFCURVE",
"320 506 OFFCURVE",
"310 506 CURVE SMOOTH",
"193 506 OFFCURVE",
"165 371 OFFCURVE",
"165 272 CURVE"
);
}
);
width = 337;
}
);
unicode = 0072;
},
{
color = 1;
glyphname = s;
lastChange = "2016-10-22 11:28:31 +0000";
layers = (
{
layerId = "262880E7-CFE1-4BDA-902E-E24798F3240A";
paths = (
{
closed = 1;
nodes = (
"310 -4 OFFCURVE",
"370 43 OFFCURVE",
"370 123 CURVE SMOOTH",
"370 211 OFFCURVE",
"297 231 OFFCURVE",
"206 263 CURVE SMOOTH",
"113 295 OFFCURVE",
"68 317 OFFCURVE",
"68 378 CURVE SMOOTH",
"68 443 OFFCURVE",
"119 483 OFFCURVE",
"205 483 CURVE SMOOTH",
"294 483 OFFCURVE",
"346 441 OFFCURVE",
"346 369 CURVE SMOOTH",
"346 344 LINE",
"368 344 LINE",
"368 369 LINE SMOOTH",
"368 454 OFFCURVE",
"308 504 OFFCURVE",
"206 504 CURVE SMOOTH",
"105 504 OFFCURVE",
"46 456 OFFCURVE",
"46 378 CURVE SMOOTH",
"46 295 OFFCURVE",
"113 273 OFFCURVE",
"202 242 CURVE SMOOTH",
"297 209 OFFCURVE",
"348 189 OFFCURVE",
"348 123 CURVE SMOOTH",
"348 57 OFFCURVE",
"296 17 OFFCURVE",
"208 17 CURVE SMOOTH",
"119 17 OFFCURVE",
"66 57 OFFCURVE",
"66 126 CURVE SMOOTH",
"66 157 LINE",
"44 157 LINE",
"44 126 LINE SMOOTH",
"44 44 OFFCURVE",
"105 -4 OFFCURVE",
"208 -4 CURVE SMOOTH"
);
}
);
width = 414;
},
{
layerId = "4E2227F3-52E4-4048-A8EE-327B486EF0A4";
paths = (
{
closed = 1;
nodes = (
"365 -4 OFFCURVE",
"440 50 OFFCURVE",
"440 154 CURVE SMOOTH",
"440 252 OFFCURVE",
"336 279 OFFCURVE",
"271 298 CURVE SMOOTH",
"224 312 OFFCURVE",
"191 319 OFFCURVE",
"191 337 CURVE SMOOTH",
"191 346 OFFCURVE",
"202 356 OFFCURVE",
"218 356 CURVE SMOOTH",
"236 356 OFFCURVE",
"248 343 OFFCURVE",
"248 326 CURVE SMOOTH",
"248 323 LINE",
"431 323 LINE",
"431 347 LINE SMOOTH",
"431 451 OFFCURVE",
"360 504 OFFCURVE",
"221 504 CURVE SMOOTH",
"82 504 OFFCURVE",
"10 448 OFFCURVE",
"10 338 CURVE SMOOTH",
"10 242 OFFCURVE",
"92 210 OFFCURVE",
"177 184 CURVE SMOOTH",
"215 172 OFFCURVE",
"247 165 OFFCURVE",
"247 149 CURVE SMOOTH",
"247 142 OFFCURVE",
"239 130 OFFCURVE",
"224 130 CURVE SMOOTH",
"210 130 OFFCURVE",
"194 141 OFFCURVE",
"194 159 CURVE SMOOTH",
"194 170 LINE",
"8 170 LINE",
"8 146 LINE SMOOTH",
"8 47 OFFCURVE",
"80 -4 OFFCURVE",
"219 -4 CURVE SMOOTH"
);
}
);
width = 448;
},
{
associatedMasterId = "4E2227F3-52E4-4048-A8EE-327B486EF0A4";
layerId = "441F9B22-0419-40BC-A36F-3C9E4C117ED8";
name = "Medium{85,100}";
paths = (
{
closed = 1;
nodes = (
"328 -4 OFFCURVE",
"396 46 OFFCURVE",
"396 132 CURVE SMOOTH",
"396 224 OFFCURVE",
"326 253 OFFCURVE",
"233 283 CURVE SMOOTH",
"152 309 OFFCURVE",
"114 318 OFFCURVE",
"114 363 CURVE SMOOTH",
"114 406 OFFCURVE",
"149 432 OFFCURVE",
"209 432 CURVE SMOOTH",
"272 432 OFFCURVE",
"309 402 OFFCURVE",
"309 350 CURVE SMOOTH",
"309 336 LINE",
"391 336 LINE",
"391 361 LINE SMOOTH",
"391 451 OFFCURVE",
"325 504 OFFCURVE",
"212 504 CURVE SMOOTH",
"99 504 OFFCURVE",
"32 453 OFFCURVE",
"32 367 CURVE SMOOTH",
"32 278 OFFCURVE",
"98 244 OFFCURVE",
"192 214 CURVE SMOOTH",
"267 190 OFFCURVE",
"310 187 OFFCURVE",
"310 138 CURVE SMOOTH",
"310 96 OFFCURVE",
"275 71 OFFCURVE",
"215 71 CURVE SMOOTH",
"149 71 OFFCURVE",
"110 100 OFFCURVE",
"110 150 CURVE SMOOTH",
"110 162 LINE",
"30 162 LINE",
"30 134 LINE SMOOTH",
"30 47 OFFCURVE",
"97 -4 OFFCURVE",
"211 -4 CURVE SMOOTH"
);
}
);
width = 426;
}
);
unicode = 0073;
},
{
color = 1;
glyphname = t;
lastChange = "2016-10-22 11:45:08 +0000";
layers = (
{
layerId = "262880E7-CFE1-4BDA-902E-E24798F3240A";
paths = (
{
closed = 1;
nodes = (
"289 0 LINE",
"289 21 LINE",
"247 21 LINE SMOOTH",
"166 21 OFFCURVE",
"143 57 OFFCURVE",
"143 153 CURVE SMOOTH",
"143 610 LINE",
"121 610 LINE",
"121 153 LINE SMOOTH",
"121 43 OFFCURVE",
"153 0 OFFCURVE",
"247 0 CURVE SMOOTH"
);
},
{
closed = 1;
nodes = (
"275 479 LINE",
"275 500 LINE",
"47 500 LINE",
"47 479 LINE"
);
}
);
width = 300;
},
{
layerId = "4E2227F3-52E4-4048-A8EE-327B486EF0A4";
paths = (
{
closed = 1;
nodes = (
"299 0 LINE",
"299 169 LINE",
"298 169 LINE",
"243 169 OFFCURVE",
"238 180 OFFCURVE",
"238 229 CURVE SMOOTH",
"238 660 LINE",
"50 660 LINE",
"50 186 LINE SMOOTH",
"50 26 OFFCURVE",
"107 -14 OFFCURVE",
"288 0 CURVE"
);
},
{
closed = 1;
nodes = (
"318 340 LINE",
"318 500 LINE",
"0 500 LINE",
"0 340 LINE"
);
}
);
width = 330;
}
);
unicode = 0074;
},
{
color = 1;
glyphname = u;
lastChange = "2016-10-22 11:28:31 +0000";
layers = (
{
layerId = "262880E7-CFE1-4BDA-902E-E24798F3240A";
paths = (
{
closed = 1;
nodes = (
"344 -4 OFFCURVE",
"407 57 OFFCURVE",
"407 157 CURVE",
"388 157 LINE",
"388 70 OFFCURVE",
"333 17 OFFCURVE",
"244 17 CURVE SMOOTH",
"161 17 OFFCURVE",
"110 71 OFFCURVE",
"110 159 CURVE SMOOTH",
"110 500 LINE",
"88 500 LINE",
"88 156 LINE SMOOTH",
"88 57 OFFCURVE",
"147 -4 OFFCURVE",
"242 -4 CURVE SMOOTH"
);
},
{
closed = 1;
nodes = (
"410 4 LINE",
"410 500 LINE",
"388 500 LINE",
"388 4 LINE"
);
}
);
width = 498;
},
{
layerId = "4E2227F3-52E4-4048-A8EE-327B486EF0A4";
paths = (
{
closed = 1;
nodes = (
"274 -4 OFFCURVE",
"341 73 OFFCURVE",
"341 178 CURVE",
"270 178 LINE",
"270 158 OFFCURVE",
"258 146 OFFCURVE",
"241 146 CURVE SMOOTH",
"224 146 OFFCURVE",
"212 158 OFFCURVE",
"212 178 CURVE SMOOTH",
"212 499 LINE",
"24 499 LINE",
"24 142 LINE SMOOTH",
"24 35 OFFCURVE",
"81 -4 OFFCURVE",
"161 -4 CURVE SMOOTH"
);
},
{
closed = 1;
nodes = (
"458 -1 LINE",
"458 499 LINE",
"270 499 LINE",
"270 -1 LINE"
);
}
);
width = 482;
}
);
unicode = 0075;
},
{
color = 1;
glyphname = v;
lastChange = "2016-10-22 11:49:19 +0000";
layers = (
{
layerId = "262880E7-CFE1-4BDA-902E-E24798F3240A";
paths = (
{
closed = 1;
nodes = (
"205 0 LINE",
"377 500 LINE",
"352 500 LINE",
"194 33 LINE",
"36 500 LINE",
"11 500 LINE",
"183 0 LINE"
);
}
);
width = 388;
},
{
layerId = "4E2227F3-52E4-4048-A8EE-327B486EF0A4";
paths = (
{
closed = 1;
nodes = (
"319 -2 LINE",
"453 498 LINE",
"267 500 LINE",
"223 232 LINE",
"179 500 LINE",
"-10 500 LINE",
"124 0 LINE"
);
}
);
width = 443;
}
);
unicode = 0076;
},
{
color = 1;
glyphname = w;
lastChange = "2016-10-22 11:50:23 +0000";
layers = (
{
layerId = "262880E7-CFE1-4BDA-902E-E24798F3240A";
paths = (
{
closed = 1;
nodes = (
"187 0 LINE",
"316 461 LINE",
"446 0 LINE",
"468 0 LINE",
"610 500 LINE",
"588 500 LINE",
"458 27 LINE",
"328 500 LINE",
"307 500 LINE",
"177 27 LINE",
"47 500 LINE",
"22 500 LINE",
"165 0 LINE"
);
}
);
width = 632;
},
{
layerId = "4E2227F3-52E4-4048-A8EE-327B486EF0A4";
paths = (
{
closed = 1;
nodes = (
"289 -2 LINE",
"330 211 LINE",
"371 0 LINE",
"526 -2 LINE",
"660 498 LINE",
"474 500 LINE",
"430 232 LINE",
"386 500 LINE",
"277 500 LINE",
"233 232 LINE",
"189 500 LINE",
"0 500 LINE",
"134 0 LINE"
);
}
);
width = 650;
}
);
unicode = 0077;
},
{
color = 1;
glyphname = x;
lastChange = "2016-10-22 11:40:01 +0000";
layers = (
{
layerId = "262880E7-CFE1-4BDA-902E-E24798F3240A";
paths = (
{
closed = 1;
nodes = (
"36 0 LINE",
"195 233 LINE",
"354 0 LINE",
"379 0 LINE",
"206 250 LINE",
"379 500 LINE",
"354 500 LINE",
"195 267 LINE",
"36 500 LINE",
"11 500 LINE",
"184 250 LINE",
"11 0 LINE"
);
}
);
width = 390;
},
{
layerId = "4E2227F3-52E4-4048-A8EE-327B486EF0A4";
paths = (
{
closed = 1;
nodes = (
"202 0 LINE",
"237 98 LINE",
"272 0 LINE",
"470 0 LINE",
"324 250 LINE",
"470 500 LINE",
"272 500 LINE",
"237 408 LINE",
"202 500 LINE",
"4 500 LINE",
"150 250 LINE",
"4 0 LINE"
);
}
);
width = 470;
}
);
unicode = 0078;
},
{
color = 1;
glyphname = y;
lastChange = "2016-10-22 11:50:33 +0000";
layers = (
{
layerId = "262880E7-CFE1-4BDA-902E-E24798F3240A";
paths = (
{
closed = 1;
nodes = (
"123 -200 OFFCURVE",
"148 -172 OFFCURVE",
"185 -62 CURVE SMOOTH",
"375 500 LINE",
"353 500 LINE",
"196 27 LINE",
"33 500 LINE",
"11 500 LINE",
"186 0 LINE",
"168 -56 LINE SMOOTH",
"136 -157 OFFCURVE",
"111 -179 OFFCURVE",
"48 -179 CURVE",
"48 -200 LINE"
);
}
);
width = 397;
},
{
layerId = "4E2227F3-52E4-4048-A8EE-327B486EF0A4";
paths = (
{
closed = 1;
nodes = (
"253 -198 OFFCURVE",
"285 -143 OFFCURVE",
"327 -2 CURVE",
"463 498 LINE",
"277 500 LINE",
"233 232 LINE",
"189 500 LINE",
"0 500 LINE",
"134 0 LINE",
"134 -2 LINE SMOOTH",
"134 -23 OFFCURVE",
"135 -54 OFFCURVE",
"52 -52 CURVE",
"52 -198 LINE"
);
}
);
width = 453;
}
);
unicode = 0079;
},
{
color = 1;
glyphname = z;
lastChange = "2016-10-22 11:40:01 +0000";
layers = (
{
layerId = "262880E7-CFE1-4BDA-902E-E24798F3240A";
paths = (
{
closed = 1;
nodes = (
"367 0 LINE",
"367 21 LINE",
"57 21 LINE",
"377 479 LINE",
"377 500 LINE",
"37 500 LINE",
"37 479 LINE",
"353 479 LINE",
"33 21 LINE",
"33 0 LINE"
);
}
);
width = 410;
},
{
layerId = "4E2227F3-52E4-4048-A8EE-327B486EF0A4";
paths = (
{
closed = 1;
nodes = (
"383 0 LINE",
"383 150 LINE",
"202 150 LINE",
"390 351 LINE",
"390 500 LINE",
"35 500 LINE",
"35 351 LINE",
"206 351 LINE",
"20 150 LINE",
"20 0 LINE"
);
}
);
width = 402;
}
);
unicode = 007A;
},
{
color = 1;
glyphname = zero;
lastChange = "2016-10-20 05:19:26 +0000";
layers = (
{
layerId = "262880E7-CFE1-4BDA-902E-E24798F3240A";
paths = (
{
closed = 1;
nodes = (
"374 -9 OFFCURVE",
"429 45 OFFCURVE",
"429 150 CURVE SMOOTH",
"429 550 LINE SMOOTH",
"429 655 OFFCURVE",
"374 709 OFFCURVE",
"269 709 CURVE SMOOTH",
"164 709 OFFCURVE",
"109 655 OFFCURVE",
"109 550 CURVE SMOOTH",
"109 150 LINE SMOOTH",
"109 45 OFFCURVE",
"164 -9 OFFCURVE",
"269 -9 CURVE SMOOTH"
);
},
{
closed = 1;
nodes = (
"178 11 OFFCURVE",
"131 58 OFFCURVE",
"131 150 CURVE SMOOTH",
"131 550 LINE SMOOTH",
"131 642 OFFCURVE",
"178 690 OFFCURVE",
"269 690 CURVE SMOOTH",
"360 690 OFFCURVE",
"407 642 OFFCURVE",
"407 550 CURVE SMOOTH",
"407 150 LINE SMOOTH",
"407 58 OFFCURVE",
"360 11 OFFCURVE",
"269 11 CURVE SMOOTH"
);
}
);
width = 538;
},
{
layerId = "4E2227F3-52E4-4048-A8EE-327B486EF0A4";
width = 538;
}
);
unicode = 0030;
},
{
color = 1;
glyphname = one;
lastChange = "2016-10-20 05:19:28 +0000";
layers = (
{
layerId = "262880E7-CFE1-4BDA-902E-E24798F3240A";
paths = (
{
closed = 1;
nodes = (
"142 0 LINE",
"142 700 LINE",
"120 700 LINE",
"120 0 LINE"
);
},
{
closed = 1;
nodes = (
"79 647 LINE",
"120 679 LINE",
"120 700 LINE",
"79 668 LINE"
);
}
);
width = 260;
},
{
layerId = "4E2227F3-52E4-4048-A8EE-327B486EF0A4";
width = 260;
}
);
unicode = 0031;
},
{
color = 1;
glyphname = two;
lastChange = "2016-10-20 05:19:29 +0000";
layers = (
{
layerId = "262880E7-CFE1-4BDA-902E-E24798F3240A";
paths = (
{
closed = 1;
nodes = (
"375 0 LINE",
"375 21 LINE",
"72 21 LINE",
"312 364 LINE SMOOTH",
"350 419 OFFCURVE",
"374 470 OFFCURVE",
"374 530 CURVE SMOOTH",
"374 615 OFFCURVE",
"325 705 OFFCURVE",
"211 705 CURVE SMOOTH",
"106 705 OFFCURVE",
"43 635 OFFCURVE",
"43 500 CURVE",
"43 479 LINE",
"65 479 LINE",
"65 498 LINE SMOOTH",
"65 616 OFFCURVE",
"119 684 OFFCURVE",
"210 684 CURVE SMOOTH",
"298 684 OFFCURVE",
"352 620 OFFCURVE",
"352 528 CURVE SMOOTH",
"352 476 OFFCURVE",
"335 434 OFFCURVE",
"307 395 CURVE SMOOTH",
"43 21 LINE",
"43 0 LINE"
);
}
);
width = 423;
},
{
layerId = "4E2227F3-52E4-4048-A8EE-327B486EF0A4";
width = 423;
}
);
unicode = 0032;
},
{
color = 1;
glyphname = eight;
lastChange = "2016-10-20 05:19:41 +0000";
layers = (
{
layerId = "262880E7-CFE1-4BDA-902E-E24798F3240A";
paths = (
{
closed = 1;
nodes = (
"365 364 OFFCURVE",
"420 418 OFFCURVE",
"420 523 CURVE SMOOTH",
"420 548 LINE SMOOTH",
"420 653 OFFCURVE",
"365 707 OFFCURVE",
"260 707 CURVE SMOOTH",
"155 707 OFFCURVE",
"100 653 OFFCURVE",
"100 548 CURVE SMOOTH",
"100 523 LINE SMOOTH",
"100 418 OFFCURVE",
"155 364 OFFCURVE",
"260 364 CURVE SMOOTH"
);
},
{
closed = 1;
nodes = (
"169 384 OFFCURVE",
"122 431 OFFCURVE",
"122 523 CURVE SMOOTH",
"122 548 LINE SMOOTH",
"122 640 OFFCURVE",
"169 688 OFFCURVE",
"260 688 CURVE SMOOTH",
"351 688 OFFCURVE",
"398 640 OFFCURVE",
"398 548 CURVE SMOOTH",
"398 523 LINE SMOOTH",
"398 431 OFFCURVE",
"351 384 OFFCURVE",
"260 384 CURVE SMOOTH"
);
},
{
closed = 1;
nodes = (
"365 -18 OFFCURVE",
"420 36 OFFCURVE",
"420 141 CURVE SMOOTH",
"420 225 LINE SMOOTH",
"420 330 OFFCURVE",
"365 384 OFFCURVE",
"260 384 CURVE SMOOTH",
"155 384 OFFCURVE",
"100 330 OFFCURVE",
"100 225 CURVE SMOOTH",
"100 141 LINE SMOOTH",
"100 36 OFFCURVE",
"155 -18 OFFCURVE",
"260 -18 CURVE SMOOTH"
);
},
{
closed = 1;
nodes = (
"169 2 OFFCURVE",
"122 49 OFFCURVE",
"122 141 CURVE SMOOTH",
"122 225 LINE SMOOTH",
"122 317 OFFCURVE",
"169 365 OFFCURVE",
"260 365 CURVE SMOOTH",
"351 365 OFFCURVE",
"398 317 OFFCURVE",
"398 225 CURVE SMOOTH",
"398 141 LINE SMOOTH",
"398 49 OFFCURVE",
"351 2 OFFCURVE",
"260 2 CURVE SMOOTH"
);
}
);
width = 520;
},
{
layerId = "4E2227F3-52E4-4048-A8EE-327B486EF0A4";
width = 520;
}
);
unicode = 0038;
},
{
color = 1;
glyphname = colon;
lastChange = "2016-10-20 07:13:30 +0000";
layers = (
{
layerId = "262880E7-CFE1-4BDA-902E-E24798F3240A";
paths = (
{
closed = 1;
nodes = (
"181 37 OFFCURVE",
"200 55 OFFCURVE",
"200 78 CURVE SMOOTH",
"200 100 OFFCURVE",
"181 118 OFFCURVE",
"159 118 CURVE SMOOTH",
"137 118 OFFCURVE",
"118 100 OFFCURVE",
"118 78 CURVE SMOOTH",
"118 55 OFFCURVE",
"136 37 OFFCURVE",
"159 37 CURVE SMOOTH"
);
},
{
closed = 1;
nodes = (
"181 350 OFFCURVE",
"200 368 OFFCURVE",
"200 391 CURVE SMOOTH",
"200 413 OFFCURVE",
"181 431 OFFCURVE",
"159 431 CURVE SMOOTH",
"137 431 OFFCURVE",
"118 413 OFFCURVE",
"118 391 CURVE SMOOTH",
"118 368 OFFCURVE",
"136 350 OFFCURVE",
"159 350 CURVE SMOOTH"
);
}
);
width = 318;
},
{
layerId = "4E2227F3-52E4-4048-A8EE-327B486EF0A4";
width = 318;
}
);
unicode = 003A;
},
{
color = 1;
glyphname = comma;
lastChange = "2016-10-20 07:13:34 +0000";
layers = (
{
layerId = "262880E7-CFE1-4BDA-902E-E24798F3240A";
paths = (
{
closed = 1;
nodes = (
"187 153 LINE",
"165 153 LINE",
"110 -66 LINE",
"132 -66 LINE"
);
}
);
width = 298;
},
{
layerId = "4E2227F3-52E4-4048-A8EE-327B486EF0A4";
width = 298;
}
);
unicode = 002C;
},
{
color = 1;
glyphname = exclam;
lastChange = "2016-10-20 07:13:36 +0000";
layers = (
{
layerId = "262880E7-CFE1-4BDA-902E-E24798F3240A";
paths = (
{
closed = 1;
nodes = (
"163 220 LINE",
"163 700 LINE",
"141 700 LINE",
"141 220 LINE"
);
},
{
closed = 1;
nodes = (
"171 5 OFFCURVE",
"190 23 OFFCURVE",
"190 46 CURVE SMOOTH",
"190 68 OFFCURVE",
"171 86 OFFCURVE",
"149 86 CURVE SMOOTH",
"127 86 OFFCURVE",
"108 68 OFFCURVE",
"108 46 CURVE SMOOTH",
"108 23 OFFCURVE",
"126 5 OFFCURVE",
"149 5 CURVE SMOOTH"
);
}
);
width = 302;
},
{
layerId = "4E2227F3-52E4-4048-A8EE-327B486EF0A4";
width = 302;
}
);
unicode = 0021;
},
{
color = 1;
glyphname = period;
lastChange = "2016-10-20 06:27:46 +0000";
layers = (
{
layerId = "262880E7-CFE1-4BDA-902E-E24798F3240A";
paths = (
{
closed = 1;
nodes = (
"177 3 OFFCURVE",
"191 17 OFFCURVE",
"191 34 CURVE SMOOTH",
"191 50 OFFCURVE",
"177 64 OFFCURVE",
"160 64 CURVE SMOOTH",
"143 64 OFFCURVE",
"129 50 OFFCURVE",
"129 34 CURVE SMOOTH",
"129 17 OFFCURVE",
"143 3 OFFCURVE",
"160 3 CURVE SMOOTH"
);
}
);
width = 320;
},
{
layerId = "4E2227F3-52E4-4048-A8EE-327B486EF0A4";
paths = (
{
closed = 1;
nodes = (
"223 0 OFFCURVE",
"266 47 OFFCURVE",
"266 105 CURVE SMOOTH",
"266 163 OFFCURVE",
"214 209 OFFCURVE",
"161 209 CURVE SMOOTH",
"108 209 OFFCURVE",
"56 163 OFFCURVE",
"56 105 CURVE SMOOTH",
"56 47 OFFCURVE",
"99 0 OFFCURVE",
"161 0 CURVE SMOOTH"
);
}
);
width = 320;
}
);
unicode = 002E;
},
{
color = 1;
glyphname = question;
lastChange = "2016-10-20 07:13:39 +0000";
layers = (
{
layerId = "262880E7-CFE1-4BDA-902E-E24798F3240A";
paths = (
{
closed = 1;
nodes = (
"227 239 LINE",
"197 243 OFFCURVE",
"182 254 OFFCURVE",
"182 275 CURVE SMOOTH",
"182 346 OFFCURVE",
"363 378 OFFCURVE",
"363 546 CURVE SMOOTH",
"363 645 OFFCURVE",
"300 709 OFFCURVE",
"206 709 CURVE SMOOTH",
"111 709 OFFCURVE",
"47 645 OFFCURVE",
"47 550 CURVE SMOOTH",
"47 500 LINE",
"69 500 LINE",
"69 550 LINE SMOOTH",
"69 633 OFFCURVE",
"124 688 OFFCURVE",
"206 688 CURVE SMOOTH",
"287 688 OFFCURVE",
"341 633 OFFCURVE",
"341 549 CURVE SMOOTH",
"341 395 OFFCURVE",
"158 364 OFFCURVE",
"158 271 CURVE SMOOTH",
"158 235 OFFCURVE",
"186 213 OFFCURVE",
"227 215 CURVE"
);
},
{
closed = 1;
nodes = (
"213 5 OFFCURVE",
"232 23 OFFCURVE",
"232 46 CURVE SMOOTH",
"232 68 OFFCURVE",
"213 86 OFFCURVE",
"191 86 CURVE SMOOTH",
"169 86 OFFCURVE",
"150 68 OFFCURVE",
"150 46 CURVE SMOOTH",
"150 23 OFFCURVE",
"168 5 OFFCURVE",
"191 5 CURVE SMOOTH"
);
}
);
width = 413;
},
{
associatedMasterId = "262880E7-CFE1-4BDA-902E-E24798F3240A";
layerId = "E56F6CC4-F9B5-46E1-BC01-FC7B34A3882B";
name = "DemiBold {119,100}";
paths = (
{
closed = 1;
nodes = (
"344 261 LINE",
"333 262 OFFCURVE",
"324 261 OFFCURVE",
"324 276 CURVE SMOOTH",
"324 341 OFFCURVE",
"489 355 OFFCURVE",
"489 519 CURVE SMOOTH",
"489 634 OFFCURVE",
"409 710 OFFCURVE",
"286 710 CURVE SMOOTH",
"161 710 OFFCURVE",
"74 630 OFFCURVE",
"74 512 CURVE SMOOTH",
"74 486 LINE",
"198 481 LINE",
"198 512 LINE SMOOTH",
"198 562 OFFCURVE",
"231 597 OFFCURVE",
"283 597 CURVE SMOOTH",
"333 597 OFFCURVE",
"364 565 OFFCURVE",
"364 516 CURVE SMOOTH",
"364 401 OFFCURVE",
"194 408 OFFCURVE",
"194 270 CURVE SMOOTH",
"194 214 OFFCURVE",
"222 166 OFFCURVE",
"332 182 CURVE"
);
},
{
closed = 1;
nodes = (
"313 -1 OFFCURVE",
"348 32 OFFCURVE",
"348 74 CURVE SMOOTH",
"348 115 OFFCURVE",
"313 148 OFFCURVE",
"272 148 CURVE SMOOTH",
"232 148 OFFCURVE",
"197 115 OFFCURVE",
"197 74 CURVE SMOOTH",
"197 32 OFFCURVE",
"230 -1 OFFCURVE",
"272 -1 CURVE SMOOTH"
);
}
);
width = 539;
},
{
associatedMasterId = "262880E7-CFE1-4BDA-902E-E24798F3240A";
layerId = "4A9C7B17-E806-4997-91E5-397A76494BAB";
name = "DemiBold {119,100}";
paths = (
{
closed = 1;
nodes = (
"344 261 LINE",
"333 262 OFFCURVE",
"324 261 OFFCURVE",
"324 276 CURVE SMOOTH",
"324 341 OFFCURVE",
"489 355 OFFCURVE",
"489 519 CURVE SMOOTH",
"489 634 OFFCURVE",
"409 710 OFFCURVE",
"286 710 CURVE SMOOTH",
"161 710 OFFCURVE",
"74 630 OFFCURVE",
"74 512 CURVE SMOOTH",
"74 486 LINE",
"198 481 LINE",
"198 512 LINE SMOOTH",
"198 562 OFFCURVE",
"231 597 OFFCURVE",
"283 597 CURVE SMOOTH",
"333 597 OFFCURVE",
"364 565 OFFCURVE",
"364 516 CURVE SMOOTH",
"364 401 OFFCURVE",
"194 408 OFFCURVE",
"194 270 CURVE SMOOTH",
"194 214 OFFCURVE",
"222 166 OFFCURVE",
"332 182 CURVE"
);
},
{
closed = 1;
nodes = (
"313 -1 OFFCURVE",
"348 32 OFFCURVE",
"348 74 CURVE SMOOTH",
"348 115 OFFCURVE",
"313 148 OFFCURVE",
"272 148 CURVE SMOOTH",
"232 148 OFFCURVE",
"197 115 OFFCURVE",
"197 74 CURVE SMOOTH",
"197 32 OFFCURVE",
"230 -1 OFFCURVE",
"272 -1 CURVE SMOOTH"
);
}
);
width = 539;
},
{
layerId = "4E2227F3-52E4-4048-A8EE-327B486EF0A4";
width = 413;
}
);
unicode = 003F;
},
{
color = 1;
glyphname = quotedbl;
lastChange = "2016-10-20 07:13:44 +0000";
layers = (
{
layerId = "262880E7-CFE1-4BDA-902E-E24798F3240A";
paths = (
{
closed = 1;
nodes = (
"269 500 LINE",
"269 692 LINE",
"247 692 LINE",
"247 500 LINE"
);
},
{
closed = 1;
nodes = (
"159 500 LINE",
"159 692 LINE",
"137 692 LINE",
"137 500 LINE"
);
}
);
width = 406;
},
{
layerId = "4E2227F3-52E4-4048-A8EE-327B486EF0A4";
width = 406;
}
);
unicode = 0022;
},
{
color = 1;
glyphname = quotesingle;
lastChange = "2016-10-20 07:13:45 +0000";
layers = (
{
layerId = "262880E7-CFE1-4BDA-902E-E24798F3240A";
paths = (
{
closed = 1;
nodes = (
"159 697 LINE",
"137 697 LINE",
"137 507 LINE",
"159 507 LINE"
);
}
);
width = 296;
},
{
layerId = "4E2227F3-52E4-4048-A8EE-327B486EF0A4";
width = 296;
}
);
unicode = 0027;
},
{
color = 1;
glyphname = semicolon;
lastChange = "2016-10-20 07:13:48 +0000";
layers = (
{
layerId = "262880E7-CFE1-4BDA-902E-E24798F3240A";
paths = (
{
closed = 1;
nodes = (
"178 370 OFFCURVE",
"197 388 OFFCURVE",
"197 411 CURVE",
"197 433 OFFCURVE",
"178 451 OFFCURVE",
"156 451 CURVE SMOOTH",
"134 451 OFFCURVE",
"115 433 OFFCURVE",
"115 411 CURVE SMOOTH",
"115 388 OFFCURVE",
"133 370 OFFCURVE",
"156 370 CURVE SMOOTH"
);
},
{
closed = 1;
nodes = (
"136 -60 LINE",
"172 147 LINE",
"150 147 LINE",
"114 -60 LINE"
);
}
);
width = 304;
},
{
layerId = "4E2227F3-52E4-4048-A8EE-327B486EF0A4";
width = 304;
}
);
unicode = 003B;
},
{
color = 1;
glyphname = slash;
lastChange = "2016-10-20 07:13:51 +0000";
layers = (
{
layerId = "262880E7-CFE1-4BDA-902E-E24798F3240A";
paths = (
{
closed = 1;
nodes = (
"51 0 LINE",
"189 700 LINE",
"167 700 LINE",
"29 0 LINE"
);
}
);
width = 218;
},
{
layerId = "4E2227F3-52E4-4048-A8EE-327B486EF0A4";
width = 218;
}
);
unicode = 002F;
},
{
color = 1;
glyphname = emdash;
lastChange = "2016-10-20 07:13:53 +0000";
layers = (
{
layerId = "262880E7-CFE1-4BDA-902E-E24798F3240A";
paths = (
{
closed = 1;
nodes = (
"506 251 LINE",
"506 272 LINE",
"98 272 LINE",
"98 251 LINE"
);
}
);
width = 604;
},
{
layerId = "4E2227F3-52E4-4048-A8EE-327B486EF0A4";
width = 604;
}
);
unicode = 2014;
},
{
color = 1;
glyphname = hyphen;
lastChange = "2016-10-20 07:13:54 +0000";
layers = (
{
layerId = "262880E7-CFE1-4BDA-902E-E24798F3240A";
paths = (
{
closed = 1;
nodes = (
"356 251 LINE",
"356 272 LINE",
"98 272 LINE",
"98 251 LINE"
);
}
);
width = 454;
},
{
layerId = "4E2227F3-52E4-4048-A8EE-327B486EF0A4";
width = 454;
}
);
unicode = 002D;
},
{
color = 1;
glyphname = dollar;
lastChange = "2016-10-20 07:13:58 +0000";
layers = (
{
layerId = "262880E7-CFE1-4BDA-902E-E24798F3240A";
paths = (
{
closed = 1;
nodes = (
"349 -5 OFFCURVE",
"412 50 OFFCURVE",
"412 149 CURVE SMOOTH",
"412 255 OFFCURVE",
"339 307 OFFCURVE",
"257 361 CURVE SMOOTH",
"176 414 OFFCURVE",
"112 457 OFFCURVE",
"112 550 CURVE SMOOTH",
"112 634 OFFCURVE",
"164 684 OFFCURVE",
"248 684 CURVE SMOOTH",
"332 684 OFFCURVE",
"384 635 OFFCURVE",
"384 548 CURVE SMOOTH",
"384 500 LINE",
"406 500 LINE",
"406 550 LINE SMOOTH",
"406 650 OFFCURVE",
"346 705 OFFCURVE",
"248 705 CURVE SMOOTH",
"150 705 OFFCURVE",
"90 649 OFFCURVE",
"90 553 CURVE SMOOTH",
"90 446 OFFCURVE",
"165 394 OFFCURVE",
"243 342 CURVE SMOOTH",
"320 291 OFFCURVE",
"390 248 OFFCURVE",
"390 152 CURVE SMOOTH",
"390 67 OFFCURVE",
"335 15 OFFCURVE",
"250 15 CURVE SMOOTH",
"165 15 OFFCURVE",
"118 68 OFFCURVE",
"118 154 CURVE SMOOTH",
"118 200 LINE",
"96 200 LINE",
"96 150 LINE SMOOTH",
"96 50 OFFCURVE",
"152 -5 OFFCURVE",
"251 -5 CURVE SMOOTH"
);
},
{
closed = 1;
nodes = (
"265 -88 LINE",
"265 2 LINE",
"243 2 LINE",
"243 -88 LINE"
);
},
{
closed = 1;
nodes = (
"258 702 LINE",
"258 792 LINE",
"236 792 LINE",
"236 702 LINE"
);
}
);
width = 502;
},
{
associatedMasterId = "262880E7-CFE1-4BDA-902E-E24798F3240A";
layerId = "E869EA52-1DFA-43F8-82AD-AF9382669512";
name = "DemiBold{119,100}";
paths = (
{
closed = 1;
nodes = (
"387 -10 OFFCURVE",
"467 63 OFFCURVE",
"467 176 CURVE SMOOTH",
"467 286 OFFCURVE",
"394 347 OFFCURVE",
"295 395 CURVE SMOOTH",
"233 430 OFFCURVE",
"175 457 OFFCURVE",
"175 518 CURVE SMOOTH",
"175 565 OFFCURVE",
"204 598 OFFCURVE",
"256 598 CURVE SMOOTH",
"309 598 OFFCURVE",
"341 564 OFFCURVE",
"341 512 CURVE SMOOTH",
"341 481 LINE",
"465 486 LINE",
"465 512 LINE SMOOTH",
"465 632 OFFCURVE",
"380 710 OFFCURVE",
"253 710 CURVE SMOOTH",
"129 710 OFFCURVE",
"49 636 OFFCURVE",
"49 524 CURVE SMOOTH",
"49 415 OFFCURVE",
"123 353 OFFCURVE",
"221 306 CURVE SMOOTH",
"279 274 OFFCURVE",
"341 245 OFFCURVE",
"341 183 CURVE SMOOTH",
"341 137 OFFCURVE",
"311 103 OFFCURVE",
"259 103 CURVE SMOOTH",
"205 103 OFFCURVE",
"176 136 OFFCURVE",
"176 193 CURVE SMOOTH",
"176 219 LINE",
"46 214 LINE",
"46 188 LINE SMOOTH",
"46 68 OFFCURVE",
"128 -10 OFFCURVE",
"261 -10 CURVE SMOOTH"
);
},
{
closed = 1;
nodes = (
"306 -80 LINE",
"306 40 LINE",
"203 40 LINE",
"203 -80 LINE"
);
},
{
closed = 1;
nodes = (
"309 652 LINE",
"309 777 LINE",
"205 777 LINE",
"205 652 LINE"
);
}
);
width = 513;
},
{
associatedMasterId = "262880E7-CFE1-4BDA-902E-E24798F3240A";
layerId = "471A87D2-9000-4529-8367-8D5BDBB289A2";
name = "DemiBold{119,100}";
paths = (
{
closed = 1;
nodes = (
"387 -10 OFFCURVE",
"467 63 OFFCURVE",
"467 176 CURVE SMOOTH",
"467 286 OFFCURVE",
"394 347 OFFCURVE",
"295 395 CURVE SMOOTH",
"233 430 OFFCURVE",
"175 457 OFFCURVE",
"175 518 CURVE SMOOTH",
"175 565 OFFCURVE",
"204 598 OFFCURVE",
"256 598 CURVE SMOOTH",
"309 598 OFFCURVE",
"341 564 OFFCURVE",
"341 512 CURVE SMOOTH",
"341 481 LINE",
"465 486 LINE",
"465 512 LINE SMOOTH",
"465 632 OFFCURVE",
"380 710 OFFCURVE",
"253 710 CURVE SMOOTH",
"129 710 OFFCURVE",
"49 636 OFFCURVE",
"49 524 CURVE SMOOTH",
"49 415 OFFCURVE",
"123 353 OFFCURVE",
"221 306 CURVE SMOOTH",
"279 274 OFFCURVE",
"341 245 OFFCURVE",
"341 183 CURVE SMOOTH",
"341 137 OFFCURVE",
"311 103 OFFCURVE",
"259 103 CURVE SMOOTH",
"205 103 OFFCURVE",
"176 136 OFFCURVE",
"176 193 CURVE SMOOTH",
"176 219 LINE",
"46 214 LINE",
"46 188 LINE SMOOTH",
"46 68 OFFCURVE",
"128 -10 OFFCURVE",
"261 -10 CURVE SMOOTH"
);
},
{
closed = 1;
nodes = (
"306 -80 LINE",
"306 40 LINE",
"203 40 LINE",
"203 -80 LINE"
);
},
{
closed = 1;
nodes = (
"309 652 LINE",
"309 777 LINE",
"205 777 LINE",
"205 652 LINE"
);
}
);
width = 513;
},
{
layerId = "4E2227F3-52E4-4048-A8EE-327B486EF0A4";
width = 502;
}
);
unicode = 0024;
},
{
color = 1;
glyphname = at;
lastChange = "2016-10-20 07:14:00 +0000";
layers = (
{
layerId = "262880E7-CFE1-4BDA-902E-E24798F3240A";
paths = (
{
closed = 1;
nodes = (
"640 -71 OFFCURVE",
"802 92 OFFCURVE",
"802 290 CURVE SMOOTH",
"802 488 OFFCURVE",
"640 651 OFFCURVE",
"441 651 CURVE SMOOTH",
"242 651 OFFCURVE",
"80 488 OFFCURVE",
"80 290 CURVE SMOOTH",
"80 92 OFFCURVE",
"242 -71 OFFCURVE",
"441 -71 CURVE SMOOTH"
);
},
{
closed = 1;
nodes = (
"254 -50 OFFCURVE",
"102 102 OFFCURVE",
"102 290 CURVE SMOOTH",
"102 478 OFFCURVE",
"254 630 OFFCURVE",
"441 630 CURVE SMOOTH",
"628 630 OFFCURVE",
"780 478 OFFCURVE",
"780 290 CURVE SMOOTH",
"780 102 OFFCURVE",
"628 -50 OFFCURVE",
"441 -50 CURVE SMOOTH"
);
},
{
closed = 1;
nodes = (
"507 119 OFFCURVE",
"551 166 OFFCURVE",
"551 241 CURVE SMOOTH",
"551 383 LINE SMOOTH",
"551 458 OFFCURVE",
"507 505 OFFCURVE",
"435 505 CURVE SMOOTH",
"362 505 OFFCURVE",
"314 459 OFFCURVE",
"314 384 CURVE SMOOTH",
"314 240 LINE SMOOTH",
"314 165 OFFCURVE",
"362 119 OFFCURVE",
"435 119 CURVE SMOOTH"
);
},
{
closed = 1;
nodes = (
"370 135 OFFCURVE",
"331 175 OFFCURVE",
"331 240 CURVE SMOOTH",
"331 384 LINE SMOOTH",
"331 449 OFFCURVE",
"372 489 OFFCURVE",
"435 489 CURVE SMOOTH",
"499 489 OFFCURVE",
"540 449 OFFCURVE",
"540 384 CURVE SMOOTH",
"540 240 LINE SMOOTH",
"540 175 OFFCURVE",
"501 135 OFFCURVE",
"435 135 CURVE SMOOTH"
);
},
{
closed = 1;
nodes = (
"556 124 LINE",
"556 500 LINE",
"540 500 LINE",
"540 124 LINE"
);
}
);
width = 882;
},
{
layerId = "4E2227F3-52E4-4048-A8EE-327B486EF0A4";
width = 882;
}
);
unicode = 0040;
},
{
color = 1;
glyphname = copyright;
lastChange = "2016-10-20 07:14:01 +0000";
layers = (
{
layerId = "262880E7-CFE1-4BDA-902E-E24798F3240A";
paths = (
{
closed = 1;
nodes = (
"640 -71 OFFCURVE",
"802 92 OFFCURVE",
"802 290 CURVE SMOOTH",
"802 488 OFFCURVE",
"640 651 OFFCURVE",
"441 651 CURVE SMOOTH",
"242 651 OFFCURVE",
"80 488 OFFCURVE",
"80 290 CURVE SMOOTH",
"80 92 OFFCURVE",
"242 -71 OFFCURVE",
"441 -71 CURVE SMOOTH"
);
},
{
closed = 1;
nodes = (
"254 -50 OFFCURVE",
"102 102 OFFCURVE",
"102 290 CURVE SMOOTH",
"102 478 OFFCURVE",
"254 630 OFFCURVE",
"441 630 CURVE SMOOTH",
"628 630 OFFCURVE",
"780 478 OFFCURVE",
"780 290 CURVE SMOOTH",
"780 102 OFFCURVE",
"628 -50 OFFCURVE",
"441 -50 CURVE SMOOTH"
);
},
{
closed = 1;
nodes = (
"513 103 OFFCURVE",
"559 148 OFFCURVE",
"559 223 CURVE SMOOTH",
"559 225 LINE",
"543 225 LINE",
"543 223 LINE SMOOTH",
"543 158 OFFCURVE",
"504 118 OFFCURVE",
"438 118 CURVE SMOOTH",
"373 118 OFFCURVE",
"334 158 OFFCURVE",
"334 223 CURVE SMOOTH",
"334 367 LINE SMOOTH",
"334 433 OFFCURVE",
"375 472 OFFCURVE",
"438 472 CURVE SMOOTH",
"502 472 OFFCURVE",
"543 433 OFFCURVE",
"543 367 CURVE SMOOTH",
"543 366 LINE",
"559 366 LINE",
"559 367 LINE SMOOTH",
"559 442 OFFCURVE",
"513 487 OFFCURVE",
"438 487 CURVE SMOOTH",
"364 487 OFFCURVE",
"317 442 OFFCURVE",
"317 367 CURVE SMOOTH",
"317 223 LINE SMOOTH",
"317 148 OFFCURVE",
"364 103 OFFCURVE",
"438 103 CURVE SMOOTH"
);
}
);
width = 882;
},
{
layerId = "4E2227F3-52E4-4048-A8EE-327B486EF0A4";
width = 882;
}
);
unicode = 00A9;
},
{
color = 1;
glyphname = registered;
lastChange = "2016-10-20 07:14:04 +0000";
layers = (
{
layerId = "262880E7-CFE1-4BDA-902E-E24798F3240A";
paths = (
{
closed = 1;
nodes = (
"640 -72 OFFCURVE",
"802 91 OFFCURVE",
"802 289 CURVE SMOOTH",
"802 487 OFFCURVE",
"640 650 OFFCURVE",
"441 650 CURVE SMOOTH",
"242 650 OFFCURVE",
"80 487 OFFCURVE",
"80 289 CURVE SMOOTH",
"80 91 OFFCURVE",
"242 -72 OFFCURVE",
"441 -72 CURVE SMOOTH"
);
},
{
closed = 1;
nodes = (
"254 -51 OFFCURVE",
"102 101 OFFCURVE",
"102 289 CURVE SMOOTH",
"102 477 OFFCURVE",
"254 629 OFFCURVE",
"441 629 CURVE SMOOTH",
"628 629 OFFCURVE",
"780 477 OFFCURVE",
"780 289 CURVE SMOOTH",
"780 101 OFFCURVE",
"628 -51 OFFCURVE",
"441 -51 CURVE SMOOTH"
);
},
{
closed = 1;
nodes = (
"380 105 LINE",
"380 489 LINE",
"452 489 LINE SMOOTH",
"508 489 OFFCURVE",
"543 453 OFFCURVE",
"543 394 CURVE SMOOTH",
"543 335 OFFCURVE",
"508 299 OFFCURVE",
"452 299 CURVE SMOOTH",
"377 299 LINE",
"377 287 LINE",
"452 287 LINE SMOOTH",
"515 287 OFFCURVE",
"555 328 OFFCURVE",
"555 394 CURVE SMOOTH",
"555 460 OFFCURVE",
"515 500 OFFCURVE",
"452 500 CURVE SMOOTH",
"367 500 LINE",
"367 105 LINE"
);
},
{
closed = 1;
nodes = (
"529 103 LINE",
"464 295 LINE",
"453 291 LINE",
"516 103 LINE"
);
}
